<?xml version="1.0" encoding="UTF-8"?>
<svg width="124px" height="124px" viewBox="0 0 124 124" version="1.1" xmlns="http://www.w3.org/2000/svg" xmlns:xlink="http://www.w3.org/1999/xlink">
    <!-- Generator: Sketch 52.5 (67469) - http://www.bohemiancoding.com/sketch -->
    <title>ic@3x</title>
    <desc>Created with Sketch.</desc>
    <defs>
        <circle id="path-1" cx="54" cy="54" r="54"></circle>
        <filter x="-12.0%" y="-10.2%" width="124.1%" height="124.1%" filterUnits="objectBoundingBox" id="filter-2">
            <feOffset dx="0" dy="2" in="SourceAlpha" result="shadowOffsetOuter1"></feOffset>
            <feGaussianBlur stdDeviation="4" in="shadowOffsetOuter1" result="shadowBlurOuter1"></feGaussianBlur>
            <feColorMatrix values="0 0 0 0 0   0 0 0 0 0   0 0 0 0 0  0 0 0 0.1 0" type="matrix" in="shadowBlurOuter1"></feColorMatrix>
        </filter>
    </defs>
    <g id="0.-Entrance" stroke="none" stroke-width="1" fill="none" fill-rule="evenodd">
        <g id="00_02_01_00_Log-in_alert" transform="translate(-658.000000, -114.000000)" fill-rule="nonzero">
            <g id="alert" transform="translate(405.000000, 80.000000)">
                <g id="ic" transform="translate(261.000000, 40.000000)">
                    <g id="Oval">
                        <use fill="black" fill-opacity="1" filter="url(#filter-2)" xlink:href="#path-1"></use>
                        <use fill="#FFFFFF" xlink:href="#path-1"></use>
                    </g>
                    <circle id="Oval" fill="#E9F0F9" cx="54" cy="54" r="48"></circle>
                    <path d="M53.0004386,32.0299047 C53.0001469,32.0199721 53,32.0100032 53,32 L53,29 C53,28.4477153 53.4477153,28 54,28 C54.5522847,28 55,28.4477153 55,29 L55,32 C55,32.0101774 54.999848,32.0203193 54.999546,32.0304236 C63.3978677,32.5431538 70.0738909,39.4732578 70.1581902,47.999218 L70.2912686,61.4586466 L70.6481698,63.0522912 C71.0138902,64.6853155 72.4634564,65.8461538 74.1369316,65.8461538 C75.7181606,65.8461538 77,67.1279932 77,68.7092222 L77,69 C77,70.6568542 75.6568542,72 74,72 L59.6586336,72 C58.8273872,74.3561234 56.582853,76 54,76 C51.417147,76 49.1726128,74.3561234 48.3413664,72 L34,72 C32.3431458,72 31,70.6568542 31,69 L31,68.680533 C31,67.1151486 32.2689948,65.8461538 33.8343791,65.8461538 C35.4502681,65.8461538 36.8099846,64.6358757 36.9972705,63.0308768 L37.1807328,61.4586466 L37.5551999,47.9938161 C37.7935023,39.4251018 44.5531412,32.5367585 53.0004386,32.0299047 Z M50.534177,72 C51.2308033,73.2049609 52.5339113,74 54,74 C55.4660887,74 56.7691967,73.2049609 57.465823,72 L50.534177,72 Z M68.6965136,63.4893702 L68.2934545,61.6896205 L68.158288,48.0189918 C68.0815145,40.2541965 61.7651748,34 54,34 C46.175308,34 39.7719534,40.2277483 39.5544269,48.0494161 L39.1799598,61.5142467 L39.1672539,61.6904521 L38.9837917,63.2626823 C38.6788768,65.8757348 36.4651616,67.8461538 33.8343791,67.8461538 C33.3735643,67.8461538 33,68.2197181 33,68.680533 L33,69 C33,69.5522847 33.4477153,70 34,70 L74,70 C74.5522847,70 75,69.5522847 75,69 L75,68.7092222 C75,68.2325627 74.6135911,67.8461538 74.1369316,67.8461538 C71.5272937,67.8461538 69.2668225,66.0359282 68.6965136,63.4893702 Z M43.2394726,48.2018067 C43.2141502,48.7535106 42.746378,49.1802272 42.1946741,49.1549048 C41.6429701,49.1295824 41.2162536,48.6618102 41.241576,48.1101062 C41.2671151,47.5536801 41.3284526,47.0028931 41.4248293,46.4601736 C41.521394,45.9163963 42.0404936,45.5538588 42.5842709,45.6504235 C43.1280482,45.7469881 43.4905856,46.2660878 43.394021,46.809865 C43.3127777,47.2673646 43.2610372,47.7319743 43.2394726,48.2018067 Z M44.2564562,44.1112467 C44.0196599,44.6101915 43.4232238,44.8227048 42.924279,44.5859084 C42.4253342,44.349112 42.2128209,43.7526759 42.4496173,43.2537311 C44.5357575,38.8581034 48.9754369,36 53.9202673,36 C54.472552,36 54.9202673,36.4477153 54.9202673,37 C54.9202673,37.5522847 54.472552,38 53.9202673,38 C49.7542133,38 46.0141227,40.4077336 44.2564562,44.1112467 Z M40.6964351,67.2834184 C40.1441504,67.2834184 39.6964351,66.8357031 39.6964351,66.2834184 C39.6964351,65.7311336 40.1441504,65.2834184 40.6964351,65.2834184 L60.6964351,65.2834184 C61.2487199,65.2834184 61.6964351,65.7311336 61.6964351,66.2834184 C61.6964351,66.8357031 61.2487199,67.2834184 60.6964351,67.2834184 L40.6964351,67.2834184 Z M63.6964351,67.2834184 C63.1441504,67.2834184 62.6964351,66.8357031 62.6964351,66.2834184 C62.6964351,65.7311336 63.1441504,65.2834184 63.6964351,65.2834184 L65.6964351,65.2834184 C66.2487199,65.2834184 66.6964351,65.7311336 66.6964351,66.2834184 C66.6964351,66.8357031 66.2487199,67.2834184 65.6964351,67.2834184 L63.6964351,67.2834184 Z" id="Combined-Shape" fill="#4B86DD"></path>
                </g>
            </g>
        </g>
    </g>
</svg>