<svg xmlns="http://www.w3.org/2000/svg" width="168" height="154" viewBox="0 0 168 154">
  <metadata><?xpacket begin="﻿" id="W5M0MpCehiHzreSzNTczkc9d"?>
<x:xmpmeta xmlns:x="adobe:ns:meta/" x:xmptk="Adobe XMP Core 5.6-c140 79.160451, 2017/05/06-01:08:21        ">
   <rdf:RDF xmlns:rdf="http://www.w3.org/1999/02/22-rdf-syntax-ns#">
      <rdf:Description rdf:about=""/>
   </rdf:RDF>
</x:xmpmeta>
                                                                                                    
                                                                                                    
                                                                                                    
                                                                                                    
                                                                                                    
                                                                                                    
                                                                                                    
                                                                                                    
                                                                                                    
                                                                                                    
                                                                                                    
                                                                                                    
                                                                                                    
                                                                                                    
                                                                                                    
                                                                                                    
                                                                                                    
                                                                                                    
                                                                                                    
                                                                                                    
                           
<?xpacket end="w"?></metadata>
<defs>
    <style>
      .cls-1 {
        fill: #abb2ba;
        fill-rule: evenodd;
      }
    </style>
  </defs>
  <path id="placeholder" class="cls-1" d="M1460,625H1340a24.029,24.029,0,0,1-24-24V521a24.03,24.03,0,0,1,24-24h22V487a16.02,16.02,0,0,1,16-16h44a16.02,16.02,0,0,1,16,16v10h22a24.03,24.03,0,0,1,24,24v80A24.029,24.029,0,0,1,1460,625ZM1340,505a16.02,16.02,0,0,0-16,16v80a16.02,16.02,0,0,0,16,16h120a16.02,16.02,0,0,0,16-16V521a16.02,16.02,0,0,0-16-16h-26a4,4,0,0,1-4-4V487a8.01,8.01,0,0,0-8-8h-44a8.01,8.01,0,0,0-8,8v14a4,4,0,0,1-4,4h-26Zm60,100a44,44,0,1,1,44-44A44.051,44.051,0,0,1,1400,605Zm0-80a36,36,0,1,0,36,36A36.041,36.041,0,0,0,1400,525Zm7.78,58.439a4,4,0,0,1-2.82-6.839,4.163,4.163,0,0,1,5.66,0,4.032,4.032,0,0,1,0,5.66A4.1,4.1,0,0,1,1407.78,583.439Zm10.65-10.653a4,4,0,0,1-3.69-5.558,15.992,15.992,0,0,0-3.43-17.544,15.97,15.97,0,0,0-17.54-3.428,4,4,0,1,1-3.11-7.369,24.165,24.165,0,0,1,18.68,0,24.015,24.015,0,0,1,12.77,31.456A4,4,0,0,1,1418.43,572.786ZM1354,505h-18v-9a9,9,0,0,1,18,0v9Zm-10-8h2v-1a1,1,0,0,0-2,0v1Zm66-2h-30a4,4,0,0,1,0-8h30A4,4,0,0,1,1410,495Zm10,0a3.995,3.995,0,0,1-4-4,3.93,3.93,0,0,1,1.18-2.82,4.1,4.1,0,0,1,5.64,0A3.966,3.966,0,0,1,1424,491,3.995,3.995,0,0,1,1420,495Zm35,40a9,9,0,1,1,9-9A9.012,9.012,0,0,1,1455,535Zm0-10a1,1,0,1,0,1,1A1,1,0,0,0,1455,525Z" transform="translate(-1316 -471)"/>
</svg>
