<?xml version="1.0" encoding="UTF-8"?>
<svg width="24px" height="24px" viewBox="0 0 24 24" version="1.1" xmlns="http://www.w3.org/2000/svg" xmlns:xlink="http://www.w3.org/1999/xlink">
    <!-- Generator: Sketch 52.6 (67491) - http://www.bohemiancoding.com/sketch -->
    <title>archive</title>
    <desc>Created with Sketch.</desc>
    <defs>
        <rect id="path-1" x="0" y="0" width="24" height="24" rx="2"></rect>
        <filter x="-41.7%" y="-33.3%" width="183.3%" height="183.3%" filterUnits="objectBoundingBox" id="filter-2">
            <feOffset dx="0" dy="2" in="SourceAlpha" result="shadowOffsetOuter1"></feOffset>
            <feGaussianBlur stdDeviation="3" in="shadowOffsetOuter1" result="shadowBlurOuter1"></feGaussianBlur>
            <feComposite in="shadowBlurOuter1" in2="SourceAlpha" operator="out" result="shadowBlurOuter1"></feComposite>
            <feColorMatrix values="0 0 0 0 0   0 0 0 0 0   0 0 0 0 0  0 0 0 0.1 0" type="matrix" in="shadowBlurOuter1"></feColorMatrix>
        </filter>
        <path d="M16.9099964,7 L16.1863415,6 L7.80791799,6 L7.0889075,7 L16.9099964,7 Z M7,9 L7,18 L17,18 L17,9 L7,9 Z M5,7.11111111 L5,7 L5.00299854,7 C5.02380268,6.6153347 5.15191753,6.25805468 5.35777778,5.98222222 L6.43111111,4.48888889 C6.64888889,4.18666667 6.96777778,4 7.33333333,4 L16.6666667,4 C17.0322222,4 17.3511111,4.18666667 17.5611111,4.48888889 L18.6422222,5.98222222 C18.8677778,6.28444444 19,6.68444444 19,7.11111111 L19,18.2222222 C19,19.2 18.3,20 17.4444444,20 L6.55555556,20 C5.7,20 5,19.2 5,18.2222222 L5,7.11111111 Z M12,16 L9,12.3333333 L10.9090909,12.3333333 L10.9090909,11 L13.0909091,11 L13.0909091,12.3333333 L15,12.3333333 L12,16 Z" id="path-3"></path>
    </defs>
    <g id="archive" stroke="none" stroke-width="1" fill="none" fill-rule="evenodd">
        <g id="Rectangle" fill-rule="nonzero">
            <use fill="black" fill-opacity="1" filter="url(#filter-2)" xlink:href="#path-1"></use>
            <rect stroke="#E1E1E1" stroke-width="1" stroke-linejoin="square" fill="#FFFFFF" fill-rule="evenodd" x="0.5" y="0.5" width="23" height="23" rx="2"></rect>
        </g>
        <mask id="mask-4" fill="white">
            <use xlink:href="#path-3"></use>
        </mask>
        <use id="Combined-Shape" fill="#000000" fill-rule="nonzero" xlink:href="#path-3"></use>
        <g id="colors" mask="url(#mask-4)" fill-rule="nonzero">
            <g id="blue" fill="#1563D7">
                <rect x="0" y="0" width="24" height="24"></rect>
            </g>
            <g id="orange" fill="#FFA512">
                <rect x="0" y="0" width="24" height="24"></rect>
            </g>
            <g id="red" fill="#F92842">
                <rect x="0" y="0" width="24" height="24"></rect>
            </g>
            <g id="white" fill="#FFFFFF">
                <rect x="0" y="0" width="24" height="24"></rect>
            </g>
            <g id="green" fill="#0BC899">
                <rect x="0" y="0" width="24" height="24"></rect>
            </g>
            <g id="dark-gray" fill="#8D9092">
                <rect x="0" y="0" width="24" height="24"></rect>
            </g>
            <g id="gray" fill="#C1C6C9">
                <rect x="0" y="0" width="24" height="24"></rect>
            </g>
        </g>
    </g>
</svg>