<?xml version="1.0" encoding="UTF-8"?>
<svg width="16px" height="16px" viewBox="0 0 16 16" version="1.1" xmlns="http://www.w3.org/2000/svg" xmlns:xlink="http://www.w3.org/1999/xlink">
    <!-- Generator: Sketch 52.6 (67491) - http://www.bohemiancoding.com/sketch -->
    <title>arrow-dropdown</title>
    <desc>Created with Sketch.</desc>
    <defs>
        <path d="M12.5367656,4.25105133 C12.8715007,3.91631622 13.4142136,3.91631622 13.7489487,4.25105133 C14.0836838,4.58578644 14.0836838,5.12849928 13.7489487,5.46323438 L8,11.2121831 L2.25105133,5.46323438 C1.91631622,5.12849928 1.91631622,4.58578644 2.25105133,4.25105133 C2.58578644,3.91631622 3.12849928,3.91631622 3.46323438,4.25105133 L8,8.78781695 L12.5367656,4.25105133 Z" id="path-1"></path>
    </defs>
    <g id="arrow-dropdown" stroke="none" stroke-width="1" fill="none" fill-rule="evenodd">
        <rect id="Rectangle" fill-rule="nonzero" x="0" y="0" width="16" height="16"></rect>
        <mask id="mask-2" fill="white">
            <use xlink:href="#path-1"></use>
        </mask>
        <use id="Rectangle" fill="#8D9092" fill-rule="nonzero" xlink:href="#path-1"></use>
        <g id="colors" mask="url(#mask-2)" fill-rule="nonzero">
            <g id="blue" fill="#1563D7">
                <rect x="0" y="0" width="16" height="16"></rect>
            </g>
            <g id="orange" fill="#FFA512">
                <rect x="0" y="0" width="16" height="16"></rect>
            </g>
            <g id="red" fill="#F92842">
                <rect x="0" y="0" width="16" height="16"></rect>
            </g>
            <g id="white" fill="#FFFFFF">
                <rect x="0" y="0" width="16" height="16"></rect>
            </g>
            <g id="green" fill="#0BC899">
                <rect x="0" y="0" width="16" height="16"></rect>
            </g>
            <g id="dark-gray" fill="#8D9092">
                <rect x="0" y="0" width="16" height="16"></rect>
            </g>
            <g id="gray" fill="#000000">
                <rect x="0" y="0" width="16" height="16"></rect>
            </g>
        </g>
    </g>
</svg>