<?xml version="1.0" encoding="UTF-8"?>
<svg width="16px" height="16px" viewBox="0 0 16 16" version="1.1" xmlns="http://www.w3.org/2000/svg" xmlns:xlink="http://www.w3.org/1999/xlink">
    <!-- Generator: Sketch 52.6 (67491) - http://www.bohemiancoding.com/sketch -->
    <title>clear-input</title>
    <desc>Created with Sketch.</desc>
    <defs>
        <path d="M9.34876072,8 L12.7206625,11.3719018 C13.0931125,11.7443518 13.0931125,12.3482125 12.7206625,12.7206625 C12.3482125,13.0931125 11.7443518,13.0931125 11.3719018,12.7206625 L8,9.34876072 L4.62809821,12.7206625 C4.25564822,13.0931125 3.65178748,13.0931125 3.27933749,12.7206625 C2.9068875,12.3482125 2.9068875,11.7443518 3.27933749,11.3719018 L6.65123928,8 L3.27933749,4.62809821 C2.9068875,4.25564822 2.9068875,3.65178748 3.27933749,3.27933749 C3.65178748,2.9068875 4.25564822,2.9068875 4.62809821,3.27933749 L8,6.65123928 L11.3719018,3.27933749 C11.7443518,2.9068875 12.3482125,2.9068875 12.7206625,3.27933749 C13.0931125,3.65178748 13.0931125,4.25564822 12.7206625,4.62809821 L9.34876072,8 Z" id="path-1"></path>
    </defs>
    <g id="clear-input" stroke="none" stroke-width="1" fill="none" fill-rule="evenodd">
        <rect id="Rectangle" fill-rule="nonzero" x="0" y="0" width="16" height="16"></rect>
        <mask id="mask-2" fill="white">
            <use xlink:href="#path-1"></use>
        </mask>
        <use id="Combined-Shape" fill="#C1C6C9" fill-rule="nonzero" xlink:href="#path-1"></use>
        <g id="colors" mask="url(#mask-2)" fill-rule="nonzero">
            <g id="blue" fill="#1563D7">
                <rect x="0" y="0" width="16" height="16"></rect>
            </g>
            <g id="orange" fill="#FFA512">
                <rect x="0" y="0" width="16" height="16"></rect>
            </g>
            <g id="red" fill="#F92842">
                <rect x="0" y="0" width="16" height="16"></rect>
            </g>
            <g id="white" fill="#FFFFFF">
                <rect x="0" y="0" width="16" height="16"></rect>
            </g>
            <g id="green" fill="#0BC899">
                <rect x="0" y="0" width="16" height="16"></rect>
            </g>
            <g id="dark-gray" fill="#8D9092">
                <rect x="0" y="0" width="16" height="16"></rect>
            </g>
            <g id="gray" fill="#000000">
                <rect x="0" y="0" width="16" height="16"></rect>
            </g>
        </g>
    </g>
</svg>