<?xml version="1.0" encoding="UTF-8"?>
<svg width="24px" height="24px" viewBox="0 0 24 24" version="1.1" xmlns="http://www.w3.org/2000/svg" xmlns:xlink="http://www.w3.org/1999/xlink">
    <!-- Generator: Sketch 52.6 (67491) - http://www.bohemiancoding.com/sketch -->
    <title>close-popup</title>
    <desc>Created with Sketch.</desc>
    <g id="close-popup" stroke="none" stroke-width="1" fill="none" fill-rule="evenodd">
        <path d="M13.3487607,12 L16.7206625,15.3719018 C17.0931125,15.7443518 17.0931125,16.3482125 16.7206625,16.7206625 C16.3482125,17.0931125 15.7443518,17.0931125 15.3719018,16.7206625 L12,13.3487607 L8.62809821,16.7206625 C8.25564822,17.0931125 7.65178748,17.0931125 7.27933749,16.7206625 C6.9068875,16.3482125 6.9068875,15.7443518 7.27933749,15.3719018 L10.6512393,12 L7.27933749,8.62809821 C6.9068875,8.25564822 6.9068875,7.65178748 7.27933749,7.27933749 C7.65178748,6.9068875 8.25564822,6.9068875 8.62809821,7.27933749 L12,10.6512393 L15.3719018,7.27933749 C15.7443518,6.9068875 16.3482125,6.9068875 16.7206625,7.27933749 C17.0931125,7.65178748 17.0931125,8.25564822 16.7206625,8.62809821 L13.3487607,12 Z" id="Combined-Shape" fill="#000000" fill-rule="nonzero"></path>
    </g>
</svg>