<?xml version="1.0" encoding="UTF-8"?>
<svg width="16px" height="16px" viewBox="0 0 16 16" version="1.1" xmlns="http://www.w3.org/2000/svg" xmlns:xlink="http://www.w3.org/1999/xlink">
    <!-- Generator: Sketch 52.6 (67491) - http://www.bohemiancoding.com/sketch -->
    <title>create account</title>
    <desc>Created with Sketch.</desc>
    <g id="create-account" stroke="none" stroke-width="1" fill="none" fill-rule="evenodd">
        <rect id="Rectangle" fill-rule="nonzero" x="0" y="0" width="16" height="16"></rect>
        <path d="M3.96049126,10.0410214 L4.91946988,10.0410214 C5.47175463,10.0410214 5.91946988,10.4887366 5.91946988,11.0410214 C5.91946988,11.5933061 5.47175463,12.0410214 4.91946988,12.0410214 L3.96049126,12.0410214 L3.96049126,13 C3.96049126,13.5522847 3.51277601,14 2.96049126,14 C2.40820651,14 1.96049126,13.5522847 1.96049126,13 L1.96049126,12.0410214 L1.00151265,12.0410214 C0.4492279,12.0410214 0.00151265026,11.5933061 0.00151265026,11.0410214 C0.00151265026,10.4887366 0.4492279,10.0410214 1.00151265,10.0410214 L1.96049126,10.0410214 L1.96049126,9.08204277 C1.96049126,8.52975802 2.40820651,8.08204277 2.96049126,8.08204277 C3.51277601,8.08204277 3.96049126,8.52975802 3.96049126,9.08204277 L3.96049126,10.0410214 Z M6.17927458,7.18768372 C6.06275975,6.81245058 6,6.41355445 6,6 L6,4 C6,1.790861 7.790861,-1.55431223e-14 10,-1.59872116e-14 C12.209139,-1.64313008e-14 14,1.790861 14,4 L14,6 C14,6.41340181 13.9372866,6.81215612 13.8208544,7.18726822 C15.1277813,7.85559699 16,9.21408392 16,10.75 L16,13.75 C16,14.3022847 15.5522847,14.75 15,14.75 L6,14.75 C5.44771525,14.75 5,14.3022847 5,13.75 C5,13.1977153 5.44771525,12.75 6,12.75 L14,12.75 L14,10.75 C14,9.92334501 13.4940736,9.19888519 12.7572537,8.89786364 C12.0397042,9.58080749 11.0688059,10 10,10 C8.93127142,10 7.96043632,9.58086817 7.24290213,8.89801194 C6.97729573,9.00674613 6.73711121,9.17236813 6.53896869,9.38419266 C6.16168759,9.78752554 5.52887492,9.80864468 5.12554204,9.43136358 C4.72220916,9.05408247 4.70109002,8.42126981 5.07837112,8.01793692 C5.39601405,7.67836032 5.76874848,7.39779073 6.17927458,7.18768372 Z M10,2 C8.8954305,2 8,2.8954305 8,4 L8,6 C8,7.1045695 8.8954305,8 10,8 C11.1045695,8 12,7.1045695 12,6 L12,4 C12,2.8954305 11.1045695,2 10,2 Z" id="Combined-Shape" fill="#000000" fill-rule="nonzero"></path>
    </g>
</svg>