<?xml version="1.0" encoding="UTF-8"?>
<svg width="24px" height="24px" viewBox="0 0 24 24" version="1.1" xmlns="http://www.w3.org/2000/svg" xmlns:xlink="http://www.w3.org/1999/xlink">
    <!-- Generator: Sketch 52.6 (67491) - http://www.bohemiancoding.com/sketch -->
    <title>data</title>
    <desc>Created with Sketch.</desc>
    <defs>
        <rect id="path-1" x="0" y="0" width="24" height="24" rx="2"></rect>
        <filter x="-29.2%" y="-20.8%" width="158.3%" height="158.3%" filterUnits="objectBoundingBox" id="filter-2">
            <feOffset dx="0" dy="2" in="SourceAlpha" result="shadowOffsetOuter1"></feOffset>
            <feGaussianBlur stdDeviation="2" in="shadowOffsetOuter1" result="shadowBlurOuter1"></feGaussianBlur>
            <feComposite in="shadowBlurOuter1" in2="SourceAlpha" operator="out" result="shadowBlurOuter1"></feComposite>
            <feColorMatrix values="0 0 0 0 0   0 0 0 0 0   0 0 0 0 0  0 0 0 0.1 0" type="matrix" in="shadowBlurOuter1"></feColorMatrix>
        </filter>
        <path d="M18.4,13.2 L5.6,13.2 L5.6,17.2 L18.4,17.2 L18.4,13.2 Z M5.6,11.6 L18.4,11.6 L18.4,7.6 L5.6,7.6 L5.6,11.6 Z M19.7859485,12.4 C19.9220846,12.6353387 20,12.9085703 20,13.2 L20,17.2 C20,18.0836556 19.2836556,18.8 18.4,18.8 L5.6,18.8 C4.7163444,18.8 4,18.0836556 4,17.2 L4,13.2 C4,12.9085703 4.07791543,12.6353387 4.21405151,12.4 C4.07791543,12.1646613 4,11.8914297 4,11.6 L4,7.6 C4,6.7163444 4.7163444,6 5.6,6 L18.4,6 C19.2836556,6 20,6.7163444 20,7.6 L20,11.6 C20,11.8914297 19.9220846,12.1646613 19.7859485,12.4 Z M10.4,16 C9.9581722,16 9.6,15.6418278 9.6,15.2 C9.6,14.7581722 9.9581722,14.4 10.4,14.4 L16.8,14.4 C17.2418278,14.4 17.6,14.7581722 17.6,15.2 C17.6,15.6418278 17.2418278,16 16.8,16 L10.4,16 Z M7.2,16 C6.7581722,16 6.4,15.6418278 6.4,15.2 C6.4,14.7581722 6.7581722,14.4 7.2,14.4 L8,14.4 C8.4418278,14.4 8.8,14.7581722 8.8,15.2 C8.8,15.6418278 8.4418278,16 8,16 L7.2,16 Z M10.4,10.4 C9.9581722,10.4 9.6,10.0418278 9.6,9.6 C9.6,9.1581722 9.9581722,8.8 10.4,8.8 L16.8,8.8 C17.2418278,8.8 17.6,9.1581722 17.6,9.6 C17.6,10.0418278 17.2418278,10.4 16.8,10.4 L10.4,10.4 Z M7.2,10.4 C6.7581722,10.4 6.4,10.0418278 6.4,9.6 C6.4,9.1581722 6.7581722,8.8 7.2,8.8 L8,8.8 C8.4418278,8.8 8.8,9.1581722 8.8,9.6 C8.8,10.0418278 8.4418278,10.4 8,10.4 L7.2,10.4 Z" id="path-3"></path>
    </defs>
    <g id="data" stroke="none" stroke-width="1" fill="none" fill-rule="evenodd">
        <g id="Rectangle" fill-rule="nonzero">
            <use fill="black" fill-opacity="1" filter="url(#filter-2)" xlink:href="#path-1"></use>
            <rect stroke="#E1E1E1" stroke-width="1" stroke-linejoin="square" fill="#FFFFFF" fill-rule="evenodd" x="0.5" y="0.5" width="23" height="23" rx="2"></rect>
        </g>
        <mask id="mask-4" fill="white">
            <use xlink:href="#path-3"></use>
        </mask>
        <use id="Combined-Shape" fill="#C1C6C9" fill-rule="nonzero" xlink:href="#path-3"></use>
        <g id="colors" mask="url(#mask-4)" fill-rule="nonzero">
            <g id="blue" fill="#1563D7">
                <rect x="0" y="0" width="24" height="24"></rect>
            </g>
            <g id="orange" fill="#FFA512">
                <rect x="0" y="0" width="24" height="24"></rect>
            </g>
            <g id="red" fill="#F92842">
                <rect x="0" y="0" width="24" height="24"></rect>
            </g>
            <g id="white" fill="#FFFFFF">
                <rect x="0" y="0" width="24" height="24"></rect>
            </g>
            <g id="green" fill="#0BC899">
                <rect x="0" y="0" width="24" height="24"></rect>
            </g>
            <g id="dark-gray" fill="#8D9092">
                <rect x="0" y="0" width="24" height="24"></rect>
            </g>
            <g id="gray" fill="#C1C6C9">
                <rect x="0" y="0" width="24" height="24"></rect>
            </g>
        </g>
    </g>
</svg>