<?xml version="1.0" encoding="UTF-8"?>
<svg width="24px" height="24px" viewBox="0 0 24 24" version="1.1" xmlns="http://www.w3.org/2000/svg" xmlns:xlink="http://www.w3.org/1999/xlink">
    <!-- Generator: Sketch 52.6 (67491) - http://www.bohemiancoding.com/sketch -->
    <title>delete</title>
    <desc>Created with Sketch.</desc>
    <defs>
        <rect id="path-1" x="0" y="0" width="24" height="24" rx="2"></rect>
        <filter x="-41.7%" y="-33.3%" width="183.3%" height="183.3%" filterUnits="objectBoundingBox" id="filter-2">
            <feOffset dx="0" dy="2" in="SourceAlpha" result="shadowOffsetOuter1"></feOffset>
            <feGaussianBlur stdDeviation="3" in="shadowOffsetOuter1" result="shadowBlurOuter1"></feGaussianBlur>
            <feComposite in="shadowBlurOuter1" in2="SourceAlpha" operator="out" result="shadowBlurOuter1"></feComposite>
            <feColorMatrix values="0 0 0 0 0   0 0 0 0 0   0 0 0 0 0  0 0 0 0.1 0" type="matrix" in="shadowBlurOuter1"></feColorMatrix>
        </filter>
        <path d="M9,7 L9,5.66666667 C9,4.64045404 9.96068107,4 11,4 L13,4 C14.0393189,4 15,4.64045404 15,5.66666667 L15,7 L18,7 C18.5522847,7 19,7.44771525 19,8 C19,8.55228475 18.5522847,9 18,9 L17,9 L17,18 C17,19.1045695 16.1045695,20 15,20 L9,20 C7.8954305,20 7,19.1045695 7,18 L7,9 L6,9 C5.44771525,9 5,8.55228475 5,8 C5,7.44771525 5.44771525,7 6,7 L9,7 Z M11,7 L13,7 L13,6 L11,6 L11,7 Z M9,9 L9,18 L15,18 L15,9 L9,9 Z" id="path-3"></path>
    </defs>
    <g id="delete" stroke="none" stroke-width="1" fill="none" fill-rule="evenodd">
        <g id="Rectangle" fill-rule="nonzero">
            <use fill="black" fill-opacity="1" filter="url(#filter-2)" xlink:href="#path-1"></use>
            <rect stroke="#E1E1E1" stroke-width="1" stroke-linejoin="square" fill="#FFFFFF" fill-rule="evenodd" x="0.5" y="0.5" width="23" height="23" rx="2"></rect>
        </g>
        <mask id="mask-4" fill="white">
            <use xlink:href="#path-3"></use>
        </mask>
        <use id="Combined-Shape" fill="#C1C6C9" fill-rule="nonzero" xlink:href="#path-3"></use>
        <g id="colors" mask="url(#mask-4)" fill-rule="nonzero">
            <g id="blue" fill="#1563D7">
                <rect x="0" y="0" width="24" height="24"></rect>
            </g>
            <g id="orange" fill="#FFA512">
                <rect x="0" y="0" width="24" height="24"></rect>
            </g>
            <g id="red" fill="#F92842">
                <rect x="0" y="0" width="24" height="24"></rect>
            </g>
            <g id="white" fill="#FFFFFF">
                <rect x="0" y="0" width="24" height="24"></rect>
            </g>
            <g id="green" fill="#0BC899">
                <rect x="0" y="0" width="24" height="24"></rect>
            </g>
            <g id="dark-gray" fill="#8D9092">
                <rect x="0" y="0" width="24" height="24"></rect>
            </g>
            <g id="gray" fill="#C1C6C9">
                <rect x="0" y="0" width="24" height="24"></rect>
            </g>
        </g>
    </g>
</svg>