<svg *ngIf="lock" viewBox="0 0 79 89" version="1.1" xmlns="http://www.w3.org/2000/svg" xmlns:xlink="http://www.w3.org/1999/xlink">
    <path d="M22.1877,20.9378 C22.6747,20.9378 23.1627,20.7378 23.5137,20.3868 C23.8637,20.0378 24.0627,19.5618 24.0627,19.0628 C24.0627,18.5748 23.8637,18.0868 23.5137,17.7368 C22.8127,17.0378 21.5627,17.0378 20.8637,17.7368 C20.5137,18.0868 20.3137,18.5748 20.3137,19.0628 C20.3137,19.5618 20.5137,20.0378 20.8637,20.3868 C21.2127,20.7378 21.7007,20.9378 22.1877,20.9378 Z M22.8087,14.0988 C23.0467,14.1988 23.2937,14.2468 23.5387,14.2468 C24.2687,14.2468 24.9637,13.8178 25.2667,13.1038 C26.0377,11.2798 27.1417,9.6428 28.5477,8.2348 C29.9547,6.8288 31.5927,5.7238 33.4167,4.9528 C34.3697,4.5488 34.8167,3.4478 34.4127,2.4948 C34.0087,1.5408 32.9047,1.0988 31.9547,1.4978 C29.6847,2.4598 27.6457,3.8348 25.8957,5.5838 C24.1467,7.3328 22.7717,9.3718 21.8127,11.6408 C21.4087,12.5958 21.8547,13.6948 22.8087,14.0988 Z M41.1807,62.0968 C40.5117,62.4008 40.0827,63.0678 40.0827,63.8028 L40.0827,67.4188 C40.0827,67.8078 39.7657,68.1258 39.3757,68.1258 C38.9867,68.1258 38.6687,67.8078 38.6687,67.4188 L38.6687,63.8028 C38.6687,63.0678 38.2407,62.4008 37.5717,62.0968 C36.0097,61.3858 35.0017,59.8268 35.0017,58.1248 C35.0017,55.7128 36.9637,53.7498 39.3757,53.7498 C41.7887,53.7498 43.7507,55.7128 43.7507,58.1248 C43.7507,59.8268 42.7417,61.3858 41.1807,62.0968 Z M39.3757,49.9998 C34.8967,49.9998 31.2507,53.6458 31.2507,58.1248 C31.2507,60.8708 32.6577,63.4158 34.9187,64.9028 L34.9187,67.4188 C34.9187,69.8758 36.9177,71.8758 39.3757,71.8758 C41.8327,71.8758 43.8317,69.8758 43.8317,67.4188 L43.8317,64.9028 C46.0937,63.4158 47.5017,60.8708 47.5017,58.1248 C47.5017,53.6458 43.8557,49.9998 39.3757,49.9998 Z M75.0007,79.3758 C75.0007,82.4768 72.4767,84.9998 69.3767,84.9998 L9.3757,84.9998 C6.2737,84.9998 3.7507,82.4768 3.7507,79.3758 L3.7507,41.8748 C3.7507,38.7738 6.2737,36.2498 9.3757,36.2498 L69.3767,36.2498 C72.4767,36.2498 75.0007,38.7738 75.0007,41.8748 L75.0007,79.3758 Z M69.3767,32.5008 L58.4377,32.5008 L58.4377,19.0628 C58.4377,16.4908 57.9337,13.9928 56.9397,11.6408 C55.9797,9.3718 54.6037,7.3328 52.8537,5.5838 C51.1057,3.8348 49.0667,2.4598 46.7957,1.4978 C44.4447,0.5048 41.9477,-0.0002 39.3757,-0.0002 C38.3397,-0.0002 37.5007,0.8408 37.5007,1.8758 C37.5007,2.9108 38.3397,3.7498 39.3757,3.7498 C41.4427,3.7498 43.4487,4.1548 45.3357,4.9528 C47.1587,5.7238 48.7967,6.8288 50.2027,8.2348 C51.6097,9.6428 52.7147,11.2798 53.4857,13.1018 C54.2837,14.9888 54.6887,16.9948 54.6887,19.0628 L54.6887,32.5008 L24.0627,32.5008 L24.0627,25.4688 C24.0627,24.4338 23.2247,23.5938 22.1877,23.5938 C21.1527,23.5938 20.3137,24.4338 20.3137,25.4688 L20.3137,32.5008 L9.3757,32.5008 C4.2067,32.5008 -0.0003,36.7058 -0.0003,41.8748 L-0.0003,79.3758 C-0.0003,84.5448 4.2067,88.7508 9.3757,88.7508 L69.3767,88.7508 C74.5457,88.7508 78.7507,84.5448 78.7507,79.3758 L78.7507,41.8748 C78.7507,36.7058 74.5457,32.5008 69.3767,32.5008 Z M18.9597,38.7498 L11.8757,38.7498 C8.7737,38.7498 6.2517,41.2738 6.2517,44.3748 L6.2517,50.8338 C6.2517,51.8688 7.0897,52.7088 8.1247,52.7088 C9.1617,52.7088 10.0007,51.8688 10.0007,50.8338 L10.0007,44.3748 C10.0007,43.3408 10.8427,42.4998 11.8757,42.4998 L18.9597,42.4998 C19.9947,42.4998 20.8337,41.6598 20.8337,40.6258 C20.8337,39.5898 19.9947,38.7498 18.9597,38.7498 Z M6.8007,60.1248 C6.4507,60.4748 6.2517,60.9618 6.2517,61.4628 C6.2517,61.9498 6.4507,62.4378 6.8007,62.7868 C7.1497,63.1378 7.6387,63.3378 8.1247,63.3378 C8.6267,63.3378 9.1007,63.1378 9.4507,62.7868 C9.8017,62.4248 10.0007,61.9498 10.0007,61.4628 C10.0007,60.9618 9.8017,60.4868 9.4507,60.1248 C8.7507,59.4378 7.4997,59.4378 6.8007,60.1248 Z"></path>
</svg>
