<?xml version="1.0" encoding="utf-8"?>
<!-- Generator: Adobe Illustrator 19.0.0, SVG Export Plug-In . SVG Version: 6.00 Build 0)  -->
<svg version="1.1" id="Capa_1" xmlns="http://www.w3.org/2000/svg" xmlns:xlink="http://www.w3.org/1999/xlink" x="0px" y="0px"
	 viewBox="-275 367 60 60" style="enable-background:new -275 367 60 60;" xml:space="preserve">
<path d="M-224.4,405.3l-9.6-14.3l9.7-14.5c0.2-0.3,0.2-0.7,0-0.9c-0.2-0.3-0.5-0.5-0.9-0.5h-41v-1.9c0-0.5-0.6-0.9-1.4-0.9
	c-1,0-1.4,0.4-1.4,0.9v2.8v27.1v2.8v20.2c0,0.5,0.5,0.9,1.4,0.9c0.8,0,1.4-0.4,1.4-0.9v-19.2h41c0,0,0,0,0,0c0.6,0,1-0.4,1-0.9
	C-224.1,405.7-224.2,405.4-224.4,405.3z"/>
</svg>
