<svg width="20px" height="20px" viewBox="0 0 20 20" version="1.1" xmlns="http://www.w3.org/2000/svg" xmlns:xlink="http://www.w3.org/1999/xlink">
    <path d="M18,14 C18,13.4477153 18.4477153,13 19,13 C19.5522847,13 20,13.4477153 20,14 L20,17 C20,18.6568542 18.6568542,20 17,20 L3,20 C1.34314575,20 3.33066907e-16,18.6568542 0,17 L0,14 C0,13.4477153 0.44771525,13 1,13 C1.55228475,13 2,13.4477153 2,14 L2,17 C2,17.5522847 2.44771525,18 3,18 L17,18 C17.5522847,18 18,17.5522847 18,17 L18,14 Z M11.0078809,9.89784615 L13.4865901,7.46421032 C13.6103757,7.34267573 13.796054,7.16037385 14.043625,6.91730467 C14.4495946,6.51871728 15.1548162,6.47832742 15.6187815,6.82709139 C16.0827468,7.17585535 16.1297616,7.78170333 15.723792,8.18029072 L10,13.8 L4.27620805,8.18029072 C3.87023842,7.78170333 3.91725319,7.17585535 4.38121848,6.82709139 C4.84518377,6.47832742 5.55040536,6.51871728 5.95637499,6.91730467 L8.87454757,9.78241258 L8.87454757,1.06666667 C8.87454757,0.477562934 9.35211051,-2.55631866e-15 9.94121424,-2.66453526e-15 C10.530318,-2.77275186e-15 11.0078809,0.477562934 11.0078809,1.06666667 L11.0078809,9.89784615 Z"></path>
</svg>
