<svg xmlns="http://www.w3.org/2000/svg" xmlns:xlink="http://www.w3.org/1999/xlink" preserveAspectRatio="xMidYMid" width="20.09" height="20.06" viewBox="0 0 20.09 20.06">
    <path d="M19.680,2.482 L12.149,10.013 L19.666,17.530 C20.196,18.061 20.196,18.922 19.666,19.452 L19.466,19.652 C18.936,20.182 18.075,20.182 17.544,19.652 L10.027,12.135 L2.511,19.652 C1.980,20.182 1.119,20.182 0.589,19.652 L0.389,19.452 C-0.141,18.922 -0.141,18.061 0.389,17.530 L7.906,10.013 L0.375,2.482 C-0.156,1.951 -0.156,1.091 0.375,0.560 L0.574,0.361 C1.105,-0.170 1.965,-0.170 2.496,0.361 L10.027,7.892 L17.559,0.361 C18.090,-0.170 18.950,-0.170 19.481,0.361 L19.680,0.560 C20.211,1.091 20.211,1.951 19.680,2.482 Z" />
</svg>
