<svg width="20px" height="20px" viewBox="0 0 20 20" version="1.1" xmlns="http://www.w3.org/2000/svg" xmlns:xlink="http://www.w3.org/1999/xlink">
    <path d="M4.18779681,15.8333333 L15.4958504,15.8333333 L11.2939598,11.6314427 L10.5536365,12.2895078 C10.2378982,12.5701641 9.76210182,12.5701641 9.44636347,12.2895078 L8.53814073,11.4821987 C8.53117307,11.489692 8.52404189,11.4970883 8.51674721,11.5043829 L4.18779681,15.8333333 Z M2.51356294,15.1505446 L7.29072387,10.3733837 L2.5,6.11496246 L2.5,15 C2.5,15.0514013 2.50465377,15.1017156 2.51356294,15.1505446 Z M17.4054503,15.3859106 C17.4658431,15.2705322 17.5,15.139255 17.5,15 L17.5,6.11496246 L12.5417953,10.5222556 L17.4054503,15.3859106 Z M2.91669305,4.27813657 C2.96467548,4.30590079 3.01058708,4.33889272 3.05363653,4.3771589 L10,10.5517042 L16.9463635,4.3771589 C16.9894129,4.33889272 17.0353245,4.30590079 17.083307,4.27813657 C16.9607407,4.2072418 16.8184421,4.16666667 16.6666667,4.16666667 L3.33333333,4.16666667 C3.18155791,4.16666667 3.03925932,4.2072418 2.91669305,4.27813657 Z M3.33333333,2.5 L16.6666667,2.5 C18.0473785,2.5 19.1666667,3.61928813 19.1666667,5 L19.1666667,15 C19.1666667,16.3807119 18.0473785,17.5 16.6666667,17.5 L3.33333333,17.5 C1.95262146,17.5 0.833333333,16.3807119 0.833333333,15 L0.833333333,5 C0.833333333,3.61928813 1.95262146,2.5 3.33333333,2.5 Z"></path>
</svg>
