<svg xmlns="http://www.w3.org/2000/svg" xmlns:xlink="http://www.w3.org/1999/xlink" preserveAspectRatio="xMidYMid" width="28" height="30.5" viewBox="0 0 28 30.5">
    <path d="M26.500,30.500 L6.500,30.500 C5.672,30.500 5.000,29.828 5.000,29.000 L5.000,23.000 C5.000,22.172 5.672,21.500 6.500,21.500 C7.328,21.500 8.000,22.172 8.000,23.000 L8.000,27.500 L25.000,27.500 L25.000,3.000 L8.000,3.000 L8.000,7.500 C8.000,8.328 7.328,9.000 6.500,9.000 C5.672,9.000 5.000,8.328 5.000,7.500 L5.000,1.500 C5.000,0.672 5.672,0.000 6.500,0.000 L26.500,0.000 C27.328,0.000 28.000,0.672 28.000,1.500 L28.000,29.000 C28.000,29.828 27.328,30.500 26.500,30.500 ZM12.439,11.311 C11.853,10.725 11.853,9.775 12.439,9.189 C13.025,8.603 13.975,8.603 14.560,9.189 L19.560,14.189 C19.698,14.327 19.808,14.493 19.884,14.677 C19.960,14.860 20.000,15.054 20.000,15.249 C20.000,15.249 20.000,15.250 20.000,15.250 C20.000,15.250 20.000,15.250 20.000,15.250 C20.000,15.445 19.960,15.640 19.884,15.823 C19.808,16.007 19.698,16.173 19.560,16.311 L14.560,21.310 C14.268,21.604 13.884,21.750 13.500,21.750 C13.116,21.750 12.732,21.604 12.439,21.310 C11.853,20.725 11.853,19.775 12.439,19.190 L14.879,16.750 L1.500,16.750 C0.672,16.750 0.000,16.078 0.000,15.250 C0.000,14.422 0.672,13.750 1.500,13.750 L14.879,13.750 L12.439,11.311 Z" class="cls-1"/>
</svg>
