<?xml version="1.0" encoding="utf-8"?>
<!-- Generator: Adobe Illustrator 19.0.0, SVG Export Plug-In . SVG Version: 6.00 Build 0)  -->
<svg version="1.1" id="Layer_1" xmlns="http://www.w3.org/2000/svg" xmlns:xlink="http://www.w3.org/1999/xlink" x="0px" y="0px"
	 viewBox="-293 385 24 24" style="enable-background:new -293 385 24 24;" xml:space="preserve">
<path d="M-271.4,398.6h-19.2v6h19.2V398.6z M-290.6,396.2h19.2v-6h-19.2V396.2z M-269.3,397.4c0.2,0.4,0.3,0.8,0.3,1.2v6
	c0,1.3-1.1,2.4-2.4,2.4h-19.2c-1.3,0-2.4-1.1-2.4-2.4v-6c0-0.4,0.1-0.8,0.3-1.2c-0.2-0.4-0.3-0.8-0.3-1.2v-6c0-1.3,1.1-2.4,2.4-2.4
	h19.2c1.3,0,2.4,1.1,2.4,2.4v6C-269,396.6-269.1,397-269.3,397.4z M-283.4,402.8c-0.7,0-1.2-0.5-1.2-1.2s0.5-1.2,1.2-1.2h9.6
	c0.7,0,1.2,0.5,1.2,1.2s-0.5,1.2-1.2,1.2H-283.4z M-288.2,402.8c-0.7,0-1.2-0.5-1.2-1.2s0.5-1.2,1.2-1.2h1.2c0.7,0,1.2,0.5,1.2,1.2
	s-0.5,1.2-1.2,1.2H-288.2z M-283.4,394.4c-0.7,0-1.2-0.5-1.2-1.2c0-0.7,0.5-1.2,1.2-1.2h9.6c0.7,0,1.2,0.5,1.2,1.2
	c0,0.7-0.5,1.2-1.2,1.2H-283.4z M-288.2,394.4c-0.7,0-1.2-0.5-1.2-1.2c0-0.7,0.5-1.2,1.2-1.2h1.2c0.7,0,1.2,0.5,1.2,1.2
	c0,0.7-0.5,1.2-1.2,1.2H-288.2z"/>
</svg>
