<svg width="16px" height="16px" viewBox="0 0 16 16" version="1.1" xmlns="http://www.w3.org/2000/svg" xmlns:xlink="http://www.w3.org/1999/xlink">
    <path d="M12.5583489,14.7534735 L12.5583489,15.0449611 C12.5583489,15.2649688 12.4814019,15.4518692 12.3274065,15.6058645 C12.1735125,15.7597586 11.9866121,15.8368069 11.7667056,15.8368069 L2.79184579,15.8368069 C2.57193925,15.8368069 2.38493769,15.7597586 2.23094237,15.6058645 C2.07694704,15.4519704 2,15.2649688 2,15.0449611 L2,3.95851246 C2,3.73850467 2.07694704,3.55150312 2.23094237,3.39760903 C2.38493769,3.24361371 2.57193925,3.16666667 2.79184579,3.16666667 L3.08333333,3.16666667 L3.08333333,13.9616277 C3.08333333,14.1816355 3.16028037,14.3686371 3.3142757,14.5225312 C3.46827103,14.6764252 3.65527259,14.7534735 3.87517913,14.7534735 L12.5583489,14.7534735 Z M14.1643146,4.13457944 C14.4390966,4.40946262 14.6178972,4.77232866 14.7004128,5.22338006 L10.5016355,5.22338006 L10.5016355,1.02470405 C10.9525857,1.10711838 11.315553,1.285919 11.5906386,1.56090343 L14.1643146,4.13457944 Z M10.2377882,6.27917445 L14.7250156,6.27917445 L14.7250156,12.8782944 C14.7250156,13.0983022 14.6480685,13.2852025 14.4940732,13.4391978 C14.3401791,13.5930919 14.1532788,13.6701402 13.9333723,13.6701402 L4.95851246,13.6701402 C4.73860592,13.6701402 4.55160436,13.5930919 4.39760903,13.4391978 C4.24361371,13.2853037 4.16666667,13.0983022 4.16666667,12.8782944 L4.16666667,1.79184579 C4.16666667,1.57183801 4.24361371,1.38483645 4.39760903,1.23094237 C4.55160436,1.07694704 4.73860592,1 4.95851246,1 L9.44584112,1 L9.44584112,5.48732866 C9.44584112,5.70733645 9.52278816,5.89433801 9.67678349,6.04823209 C9.83067757,6.20222741 10.0176791,6.27917445 10.2377882,6.27917445 Z" id="path-1"></path>
</svg>
