<svg xmlns="http://www.w3.org/2000/svg" xmlns:xlink="http://www.w3.org/1999/xlink" preserveAspectRatio="xMidYMid" width="33" height="33" viewBox="0 0 33 33">
    <path d="M16.500,33.000 C7.402,33.000 0.000,25.598 0.000,16.500 C0.000,7.402 7.402,-0.000 16.500,-0.000 C25.598,-0.000 33.000,7.402 33.000,16.500 C33.000,25.598 25.598,33.000 16.500,33.000 ZM16.500,3.000 C9.056,3.000 3.000,9.056 3.000,16.500 C3.000,23.944 9.056,30.000 16.500,30.000 C23.944,30.000 30.000,23.944 30.000,16.500 C30.000,9.056 23.944,3.000 16.500,3.000 ZM24.000,18.000 L18.000,18.000 L18.000,24.000 C18.000,24.829 17.329,25.500 16.500,25.500 C15.671,25.500 15.000,24.829 15.000,24.000 L15.000,18.000 L9.000,18.000 C8.171,18.000 7.500,17.329 7.500,16.500 C7.500,15.671 8.171,15.000 9.000,15.000 L15.000,15.000 L15.000,9.000 C15.000,8.171 15.671,7.500 16.500,7.500 C17.329,7.500 18.000,8.171 18.000,9.000 L18.000,15.000 L24.000,15.000 C24.828,15.000 25.500,15.671 25.500,16.500 C25.500,17.329 24.828,18.000 24.000,18.000 Z" />
</svg>
