<svg width="20px" height="20px" viewBox="0 0 20 20" version="1.1" xmlns="http://www.w3.org/2000/svg" xmlns:xlink="http://www.w3.org/1999/xlink">
    <path d="M4.55464669,13.8470556 C3.93631819,12.9734295 3.52293653,11.944475 3.38452319,10.8302136 L1.25,10.8302136 C0.789762708,10.8302136 0.416666667,10.4571176 0.416666667,9.99688028 C0.416666667,9.53664299 0.789762708,9.16354695 1.25,9.16354695 L3.38530123,9.16354695 C3.51705731,8.11098673 3.89419635,7.13470766 4.45764608,6.29378201 L2.98815536,4.8242913 C2.66271845,4.49885439 2.66271845,3.9712169 2.98815536,3.64577999 C3.31359227,3.32034308 3.84122976,3.32034308 4.16666667,3.64577999 L5.55355361,5.03266694 C6.53837533,4.15051661 7.7870659,3.55694524 9.16666667,3.38491146 L9.16666667,1.24688028 C9.16666667,0.786642989 9.53976271,0.413546947 10,0.413546947 C10.4602373,0.413546947 10.8333333,0.786642989 10.8333333,1.24688028 L10.8333333,3.38491146 C12.1527735,3.54944332 13.3524717,4.09955015 14.3161159,4.91891973 L15.5892557,3.64577999 C15.9146926,3.32034308 16.44233,3.32034308 16.767767,3.64577999 C17.0932039,3.9712169 17.0932039,4.49885439 16.767767,4.8242913 L15.4427664,6.1492919 C16.0613734,7.02207198 16.475325,8.05013106 16.6146988,9.16354695 L18.75,9.16354695 C19.2102373,9.16354695 19.5833333,9.53664299 19.5833333,9.99688028 C19.5833333,10.4571176 19.2102373,10.8302136 18.75,10.8302136 L16.6154768,10.8302136 C16.4695285,12.0051337 16.0178592,13.0852061 15.34256,13.9883399 L16.767767,15.4135469 C17.0932039,15.7389839 17.0932039,16.2666213 16.767767,16.5920582 C16.44233,16.9174952 15.9146926,16.9174952 15.5892557,16.5920582 L14.1860642,15.1888668 C13.2454508,15.9486506 12.0940525,16.4578791 10.8333333,16.6150885 L10.8333333,18.7468803 C10.8333333,19.2071176 10.4602373,19.5802136 10,19.5802136 C9.53976271,19.5802136 9.16666667,19.2071176 9.16666667,18.7468803 L9.16666667,16.6150885 C7.84568749,16.4503648 6.64472969,15.899166 5.68051296,15.078212 L4.16666667,16.5920582 C3.84122976,16.9174952 3.31359227,16.9174952 2.98815536,16.5920582 C2.66271845,16.2666213 2.66271845,15.7389839 2.98815536,15.4135469 L4.55464669,13.8470556 Z M10,15 C12.7614237,15 15,12.7614237 15,10 C15,7.23857625 12.7614237,5 10,5 C7.23857625,5 5,7.23857625 5,10 C5,12.7614237 7.23857625,15 10,15 Z M10,13.3333333 C8.15905083,13.3333333 6.66666667,11.8409492 6.66666667,10 C6.66666667,8.15905083 8.15905083,6.66666667 10,6.66666667 C11.8409492,6.66666667 13.3333333,8.15905083 13.3333333,10 C13.3333333,11.8409492 11.8409492,13.3333333 10,13.3333333 Z M10,11.6666667 C10.9204746,11.6666667 11.6666667,10.9204746 11.6666667,10 C11.6666667,9.07952542 10.9204746,8.33333333 10,8.33333333 C9.07952542,8.33333333 8.33333333,9.07952542 8.33333333,10 C8.33333333,10.9204746 9.07952542,11.6666667 10,11.6666667 Z"></path>
</svg>
