<svg xmlns="http://www.w3.org/2000/svg" width="55" height="44.5" viewBox="0 0 55 44.5">
    <path id="patients" class="cls-1"
        d="M81,582.031H50a2,2,0,0,1-2-2v-9.5a8.009,8.009,0,0,1,8-8H75a8.009,8.009,0,0,1,8,8v9.5A2,2,0,0,1,81,582.031Zm-29-4H79v-7.5a4,4,0,0,0-4-4H56a4,4,0,0,0-4,4v7.5Zm13.5-18.5a9.511,9.511,0,0,1-9.5-9.5v-3a9.5,9.5,0,0,1,19,0v3A9.511,9.511,0,0,1,65.5,559.531Zm0-18a5.507,5.507,0,0,0-5.5,5.5v3a5.5,5.5,0,1,0,11,0v-3A5.507,5.507,0,0,0,65.5,541.531Zm35.5,40.5H81a2,2,0,1,1,0-4H99v-2.5a4,4,0,0,0-4-4H81.583a2,2,0,1,1,0-4H95a8.009,8.009,0,0,1,8,8v4.5A2,2,0,0,1,101,582.031Zm-12.5-17.5a8.51,8.51,0,0,1-8.5-8.5v-4a8.5,8.5,0,0,1,17,0v4A8.51,8.51,0,0,1,88.5,564.531Zm0-17a4.505,4.505,0,0,0-4.5,4.5v4a4.5,4.5,0,0,0,9,0v-4A4.505,4.505,0,0,0,88.5,547.531Z"
        transform="translate(-48 -537.531)"/>
</svg>
