<?xml version="1.0" encoding="UTF-8"?>
<svg width="16px" height="16px" viewBox="0 0 16 16" version="1.1" xmlns="http://www.w3.org/2000/svg" xmlns:xlink="http://www.w3.org/1999/xlink">
    <g>
        <path d="M9.42036581,12.1926694 L11.3624047,9.97319631 C11.6533504,9.64068701 12.1587605,9.606993 12.4912698,9.89793864 C12.8237791,10.1888843 12.8574731,10.6942944 12.5665274,11.0268037 L8.46446609,15.7148738 L4.36240474,11.0268037 C4.0714591,10.6942944 4.1051531,10.1888843 4.43766241,9.89793864 C4.77017171,9.606993 5.27558181,9.64068701 5.56652745,9.97319631 L7.82036581,12.5490116 L7.82036581,6 C7.82036581,4.2326888 6.38767701,2.8 4.62036581,2.8 L2.62036581,2.8 C2.17853801,2.8 1.82036581,2.4418278 1.82036581,2 C1.82036581,1.5581722 2.17853801,1.2 2.62036581,1.2 L4.62036581,1.2 C7.27133261,1.2 9.42036581,3.3490332 9.42036581,6 L9.42036581,12.1926694 Z"></path>
    </g>
</svg>
