<?xml version="1.0" encoding="UTF-8"?>
<svg width="20px" height="20px" viewBox="0 0 20 20" version="1.1" xmlns="http://www.w3.org/2000/svg" xmlns:xlink="http://www.w3.org/1999/xlink">
    <path d="M13.125,16.8055556 L14.5833333,16.8055556 C14.9668644,16.8055556 15.2777778,16.4946422 15.2777778,16.1111111 L15.2777778,7.81387287 L10,2.53609509 L4.72222222,7.81387287 L4.72222222,16.1111111 C4.72222222,16.4946422 5.03313559,16.8055556 5.41666667,16.8055556 L6.875,16.8055556 L6.875,10 C6.875,9.53976271 7.24809604,9.16666667 7.70833333,9.16666667 L12.2916667,9.16666667 C12.751904,9.16666667 13.125,9.53976271 13.125,10 L13.125,16.8055556 Z M11.4583333,16.8055556 L11.4583333,10.8333333 L8.54166667,10.8333333 L8.54166667,16.8055556 L11.4583333,16.8055556 Z M3.05555556,9.48053953 L1.94683944,10.5892557 C1.62140253,10.9146926 1.09376504,10.9146926 0.768328135,10.5892557 C0.442891225,10.2638187 0.442891225,9.73618126 0.768328135,9.41074435 L9.41074435,0.768328135 C9.73618126,0.442891225 10.2638187,0.442891225 10.5892557,0.768328135 L19.2316719,9.41074435 C19.5571088,9.73618126 19.5571088,10.2638187 19.2316719,10.5892557 C18.906235,10.9146926 18.3785975,10.9146926 18.0531606,10.5892557 L16.9444444,9.48053953 L16.9444444,16.1111111 C16.9444444,17.4151168 15.887339,18.4722222 14.5833333,18.4722222 L5.41666667,18.4722222 C4.11266101,18.4722222 3.05555556,17.4151168 3.05555556,16.1111111 L3.05555556,9.48053953 Z"></path>
</svg>
