                <svg xmlns="http://www.w3.org/2000/svg" width="25" height="29" viewBox="0 0 25 29">
                    <path id="trash" class="cls-1" d="M8947.06,2604.03h-4.58v-3.5a3.5,3.5,0,0,0-3.5-3.5h-6a3.5,3.5,0,0,0-3.5,3.5v3.5h-4.42a1.5,1.5,0,0,0,0,3h0.92v15.5a3.5,3.5,0,0,0,3.5,3.5h13a3.5,3.5,0,0,0,3.5-3.5v-15.5h1.08A1.5,1.5,0,0,0,8947.06,2604.03Zm-14.58-3.5a0.5,0.5,0,0,1,.5-0.5h6a0.508,0.508,0,0,1,.5.5v3.5h-7v-3.5Zm10.5,22a0.5,0.5,0,0,1-.5.5h-13a0.5,0.5,0,0,1-.5-0.5v-15.5h14v15.5Zm-9.5-13a1.5,1.5,0,0,0-1.5,1.5v8a1.5,1.5,0,1,0,3,0v-8A1.5,1.5,0,0,0,8933.48,2609.53Zm5,0a1.5,1.5,0,0,0-1.5,1.5v8a1.5,1.5,0,1,0,3,0v-8A1.5,1.5,0,0,0,8938.48,2609.53Z"
                        transform="translate(-8923.56 -2597.03)" />
                </svg>
