<svg xmlns="http://www.w3.org/2000/svg" width="47" height="40" viewBox="0 0 47 40">
    <path id="data"
        d="M94,422H57a5.006,5.006,0,0,1-5-5v-6a5.006,5.006,0,0,1,5-5H94a5.006,5.006,0,0,1,5,5v6A5.006,5.006,0,0,1,94,422ZM57,410a1,1,0,0,0-1,1v6a1,1,0,0,0,1,1H94a1,1,0,0,0,1-1v-6a1,1,0,0,0-1-1H57Zm32.5,6h-20a2,2,0,0,1,0-4h20A2,2,0,0,1,89.5,416ZM62,416a1.994,1.994,0,0,1-1.41-3.41,2.049,2.049,0,0,1,2.821,0A1.983,1.983,0,0,1,64,414,2,2,0,0,1,62,416Zm32-6H57a5.006,5.006,0,0,1-5-5v-6a5.006,5.006,0,0,1,5-5H94a5.006,5.006,0,0,1,5,5v6A5.006,5.006,0,0,1,94,410ZM57,398a1,1,0,0,0-1,1v6a1,1,0,0,0,1,1H94a1,1,0,0,0,1-1v-6a1,1,0,0,0-1-1H57Zm32.5,6h-20a2,2,0,0,1,0-4h20A2,2,0,0,1,89.5,404ZM62,404a2,2,0,0,1-1.42-3.41,2.061,2.061,0,0,1,2.83,0A1.967,1.967,0,0,1,64,402,2,2,0,0,1,62,404Zm32-6H57a5.006,5.006,0,0,1-5-5v-6a5.006,5.006,0,0,1,5-5H94a5.006,5.006,0,0,1,5,5v6A5.006,5.006,0,0,1,94,398ZM57,386a1,1,0,0,0-1,1v6a1,1,0,0,0,1,1H94a1,1,0,0,0,1-1v-6a1,1,0,0,0-1-1H57Zm32.5,6h-20a2,2,0,0,1,0-4h20A2,2,0,0,1,89.5,392ZM62,392a2,2,0,0,1-1.42-3.41,2.071,2.071,0,0,1,2.83-.01A2,2,0,0,1,62,392Z"
        transform="translate(-52 -382)"/>
</svg>
