<?xml version="1.0" encoding="utf-8"?>
<svg version="1.1" id="Layer_1" xmlns="http://www.w3.org/2000/svg" xmlns:xlink="http://www.w3.org/1999/xlink" x="0px" y="0px"
	 viewBox="-297 389 16 16" style="enable-background:new -297 389 16 16;" xml:space="preserve">
	<g>
		<path id="path-1_1_" d="M-287.6,392.8l1.9,2.2c0.3,0.3,0.8,0.4,1.1,0.1c0.3-0.3,0.4-0.8,0.1-1.1l-4.1-4.7l-4.1,4.7
			c-0.3,0.3-0.3,0.8,0.1,1.1c0.3,0.3,0.8,0.3,1.1-0.1l2.3-2.6v6.5c0,1.8-1.4,3.2-3.2,3.2h-2c-0.4,0-0.8,0.4-0.8,0.8s0.4,0.8,0.8,0.8
			h2c2.7,0,4.8-2.1,4.8-4.8V392.8z"/>
	</g>
</svg>
