<svg width="20px" height="20px" viewBox="0 0 20 20" version="1.1" xmlns="http://www.w3.org/2000/svg" xmlns:xlink="http://www.w3.org/1999/xlink">
    <path d="M18.6935315,10.2208351 L18.6407407,10.1326802 L18.6407407,7.85185185 C18.6407407,5.8372925 17.0515964,4.24814815 15.037037,4.24814815 C13.0224777,4.24814815 11.4333333,5.8372925 11.4333333,7.85185185 L11.4333333,13.5185185 C11.4333333,15.0298851 10.2521073,16.2111111 8.74074074,16.2111111 C7.22937416,16.2111111 6.04814815,15.0298851 6.04814815,13.5185185 L6.04814815,10.757548 L6.12340208,10.6606582 C8.23607756,10.1210718 9.82592593,8.4186599 9.82592593,6.59259259 L9.82592593,2.18518519 C9.82592593,1.55581102 9.3701149,1.1 8.74074074,1.1 L7.48148148,1.1 C6.85210732,1.1 6.3962963,1.55581102 6.3962963,2.18518519 C6.3962963,2.81455935 6.85210732,3.27037037 7.48148148,3.27037037 L7.55555556,3.27037037 L7.65555556,3.37037037 L7.65555556,6.59259259 C7.65555556,7.61820139 6.28307667,8.65555556 4.96296296,8.65555556 C3.64284926,8.65555556 2.27037037,7.61820139 2.27037037,6.59259259 L2.27037037,3.37037037 L2.37037037,3.27037037 L2.44444444,3.27037037 C3.07381861,3.27037037 3.52962963,2.81455935 3.52962963,2.18518519 C3.52962963,1.55581102 3.07381861,1.1 2.44444444,1.1 L1.18518519,1.1 C0.555811021,1.1 0.1,1.55581102 0.1,2.18518519 L0.1,6.59259259 C0.1,8.4376983 1.72250171,10.1853715 3.80058615,10.6721803 L3.87777778,10.7695445 L3.87777778,13.5185185 C3.87777778,16.2256705 6.0335888,18.3814815 8.74074074,18.3814815 C11.4478927,18.3814815 13.6037037,16.2256705 13.6037037,13.5185185 L13.6037037,7.85185185 C13.6037037,7.03307787 14.2182631,6.41851852 15.037037,6.41851852 C15.855811,6.41851852 16.4703704,7.03307787 16.4703704,7.85185185 L16.4703704,10.1326802 L16.4175796,10.2208351 C15.6722435,10.6199815 15.2111111,11.3929784 15.2111111,12.2592593 C15.2111111,13.581226 16.2335888,14.6037037 17.5555556,14.6037037 C18.8775223,14.6037037 19.9,13.581226 19.9,12.2592593 C19.9,11.3929784 19.4388676,10.6199815 18.6935315,10.2208351 Z" id="Path" fill="#000000" fill-rule="nonzero"></path>
</svg>
