<svg xmlns="http://www.w3.org/2000/svg" width="36.5" height="44" viewBox="0 0 36.5 44">
    <path id="log_out" data-name="log out"
        d="M89,1425H59a2,2,0,0,1-2-2v-5.5a2,2,0,1,1,4,0v3.5H87v-36H61v3.5a2,2,0,1,1-4,0V1383a2,2,0,0,1,2-2H89a2,2,0,0,1,2,2v40A2,2,0,0,1,89,1425Zm-7.5-20h-25a2,2,0,0,1,0-4h25A2,2,0,1,1,81.5,1405ZM64,1412.5a2,2,0,0,1-1.414-.59l-7.5-7.5a1.989,1.989,0,0,1,0-2.82l7.5-7.5a2,2,0,0,1,2.828,2.82L59.329,1403l6.085,6.09A2,2,0,0,1,64,1412.5Z"
        transform="translate(-54.5 -1381)"/>
</svg>
