<svg xmlns="http://www.w3.org/2000/svg" width="35.59" height="38.65" viewBox="0 0 35.59 38.65">
    <path id="attach" class="cls-1" d="M8402.3,1476.33a12.1,12.1,0,0,1-8.56-20.66l15.5-15.5a8.57,8.57,0,0,1,12.12,12.12l-15.5,15.5a5.035,5.035,0,1,1-7.12-7.12l14.5-14.5a1.509,1.509,0,0,1,2.12,0,1.491,1.491,0,0,1,0,2.12l-14.5,14.5a2.063,2.063,0,0,0-.6,1.44,2.04,2.04,0,0,0,3.48,1.44l15.5-15.5a5.572,5.572,0,0,0-7.88-7.88l-15.5,15.5a9.108,9.108,0,1,0,12.88,12.88l14.5-14.5a1.509,1.509,0,0,1,2.12,0,1.491,1.491,0,0,1,0,2.12l-14.5,14.5A12.068,12.068,0,0,1,8402.3,1476.33Z" transform="translate(-8390.22 -1437.69)"/>
</svg>
