<?xml version="1.0" encoding="utf-8"?>
<!-- Generator: Adobe Illustrator 19.0.0, SVG Export Plug-In . SVG Version: 6.00 Build 0)  -->
<svg version="1.1" id="Layer_1" xmlns="http://www.w3.org/2000/svg" xmlns:xlink="http://www.w3.org/1999/xlink" x="0px" y="0px"
	 viewBox="-243 335 65.8 75.2" style="enable-background:new -243 335 65.8 75.2;" xml:space="preserve">
<path d="M-211.5,340.8C-211.5,340.7-211.5,340.7-211.5,340.8l0-4.3c0-0.8,0.6-1.4,1.4-1.4s1.4,0.6,1.4,1.4v4.3c0,0,0,0,0,0
	c12,0.7,21.5,10.6,21.7,22.8l0.2,19.2l0.5,2.3c0.5,2.3,2.6,4,5,4c2.3,0,4.1,1.8,4.1,4.1v0.4c0,2.4-1.9,4.3-4.3,4.3H-202
	c-1.2,3.4-4.4,5.7-8.1,5.7s-6.9-2.3-8.1-5.7h-20.5c-2.4,0-4.3-1.9-4.3-4.3v-0.5c0-2.2,1.8-4.1,4.1-4.1c2.3,0,4.3-1.7,4.5-4l0.3-2.2
	l0.5-19.2C-233.2,351.3-223.6,341.5-211.5,340.8z M-215,397.9c1,1.7,2.9,2.9,5,2.9s4-1.1,5-2.9H-215z M-189.1,385.7l-0.6-2.6
	l-0.2-19.5c-0.1-11.1-9.1-20-20.2-20c-11.2,0-20.3,8.9-20.6,20.1l-0.5,19.2l0,0.3l-0.3,2.2c-0.4,3.7-3.6,6.6-7.4,6.6
	c-0.7,0-1.2,0.5-1.2,1.2v0.5c0,0.8,0.6,1.4,1.4,1.4h57.2c0.8,0,1.4-0.6,1.4-1.4v-0.4c0-0.7-0.6-1.2-1.2-1.2
	C-185,392-188.3,389.4-189.1,385.7z M-225.5,363.9c0,0.8-0.7,1.4-1.5,1.4s-1.4-0.7-1.4-1.5c0-0.8,0.1-1.6,0.3-2.4
	c0.1-0.8,0.9-1.3,1.7-1.2c0.8,0.1,1.3,0.9,1.2,1.7C-225.3,362.5-225.4,363.2-225.5,363.9z M-224,358c-0.3,0.7-1.2,1-1.9,0.7
	s-1-1.2-0.7-1.9c3-6.3,9.3-10.4,16.4-10.4c0.8,0,1.4,0.6,1.4,1.4c0,0.8-0.6,1.4-1.4,1.4C-216.1,349.3-221.5,352.7-224,358z
	 M-229.1,391.1c-0.8,0-1.4-0.6-1.4-1.4c0-0.8,0.6-1.4,1.4-1.4h28.6c0.8,0,1.4,0.6,1.4,1.4c0,0.8-0.6,1.4-1.4,1.4H-229.1z
	 M-196.2,391.1c-0.8,0-1.4-0.6-1.4-1.4c0-0.8,0.6-1.4,1.4-1.4h2.9c0.8,0,1.4,0.6,1.4,1.4c0,0.8-0.6,1.4-1.4,1.4H-196.2z"/>
</svg>
