<svg class="logoIcon" xmlns="http://www.w3.org/2000/svg" xmlns:xlink="http://www.w3.org/1999/xlink" preserveAspectRatio="xMidYMid" viewBox="0 0 91.25 81.875">
    <path d="M81.875,81.875 L9.375,81.875 C4.205,81.875 -0.000,77.670 -0.000,72.500 L-0.000,25.000 C-0.000,19.831 4.205,15.625 9.375,15.625 L27.344,15.625 L27.344,7.500 C27.344,5.088 29.307,3.125 31.719,3.125 L32.235,3.125 C32.777,1.324 34.431,0.000 36.406,0.000 L54.844,0.000 C56.819,0.000 58.473,1.324 59.015,3.125 L59.531,3.125 C61.943,3.125 63.906,5.088 63.906,7.500 L63.906,15.625 L81.875,15.625 C87.045,15.625 91.250,19.831 91.250,25.000 L91.250,72.500 C91.250,77.670 87.045,81.875 81.875,81.875 ZM55.469,4.375 C55.469,4.031 55.189,3.750 54.844,3.750 L36.406,3.750 C36.061,3.750 35.781,4.031 35.781,4.375 L35.781,5.625 C35.781,5.969 36.061,6.250 36.406,6.250 L54.844,6.250 C55.189,6.250 55.469,5.969 55.469,5.625 L55.469,4.375 ZM60.156,7.500 C60.156,7.156 59.876,6.875 59.531,6.875 L59.015,6.875 C58.473,8.676 56.819,10.000 54.844,10.000 L36.406,10.000 C34.431,10.000 32.777,8.676 32.235,6.875 L31.719,6.875 C31.374,6.875 31.094,7.156 31.094,7.500 L31.094,15.625 L60.156,15.625 L60.156,7.500 ZM87.500,25.000 C87.500,21.898 84.977,19.375 81.875,19.375 L9.375,19.375 C6.273,19.375 3.750,21.898 3.750,25.000 L3.750,72.500 C3.750,75.602 6.273,78.125 9.375,78.125 L81.875,78.125 C84.977,78.125 87.500,75.602 87.500,72.500 L87.500,25.000 ZM60.209,63.334 C58.315,65.229 56.110,66.715 53.654,67.754 C51.109,68.830 48.408,69.375 45.625,69.375 C42.842,69.375 40.141,68.830 37.596,67.754 C36.642,67.350 36.196,66.250 36.599,65.297 C37.003,64.342 38.105,63.899 39.056,64.300 C43.218,66.060 48.032,66.060 52.194,64.300 C54.202,63.450 56.007,62.233 57.557,60.683 C59.107,59.132 60.324,57.328 61.175,55.318 C62.054,53.239 62.500,51.028 62.500,48.750 C62.500,46.472 62.054,44.262 61.174,42.182 C60.324,40.172 59.107,38.368 57.557,36.818 C56.007,35.268 54.202,34.051 52.194,33.201 C48.032,31.441 43.218,31.441 39.056,33.201 C38.105,33.601 37.003,33.158 36.599,32.204 C36.196,31.250 36.642,30.150 37.596,29.746 C42.686,27.595 48.564,27.595 53.654,29.746 C56.110,30.785 58.315,32.272 60.209,34.166 C62.102,36.060 63.589,38.264 64.628,40.720 C65.704,43.267 66.250,45.968 66.250,48.750 C66.250,51.532 65.704,54.234 64.629,56.779 C63.589,59.236 62.102,61.441 60.209,63.334 ZM43.750,39.375 C43.750,38.340 44.589,37.500 45.625,37.500 C46.661,37.500 47.500,38.340 47.500,39.375 L47.500,46.875 L55.000,46.875 C56.036,46.875 56.875,47.715 56.875,48.750 C56.875,49.785 56.036,50.625 55.000,50.625 L47.500,50.625 L47.500,58.125 C47.500,59.160 46.661,60.000 45.625,60.000 C44.589,60.000 43.750,59.160 43.750,58.125 L43.750,50.625 L36.250,50.625 C35.214,50.625 34.375,49.785 34.375,48.750 C34.375,47.715 35.214,46.875 36.250,46.875 L43.750,46.875 L43.750,39.375 ZM30.075,42.183 C29.196,44.262 28.750,46.472 28.750,48.750 C28.750,51.028 29.196,53.239 30.076,55.319 C30.478,56.272 30.032,57.372 29.078,57.776 C28.840,57.876 28.593,57.924 28.349,57.924 C27.618,57.924 26.924,57.494 26.621,56.779 C25.546,54.234 25.000,51.532 25.000,48.750 C25.000,45.968 25.546,43.267 26.621,40.722 C27.661,38.264 29.148,36.060 31.041,34.166 C31.774,33.434 32.960,33.434 33.693,34.166 C34.425,34.899 34.425,36.085 33.693,36.818 C32.143,38.368 30.926,40.172 30.075,42.183 ZM18.959,25.625 L11.875,25.625 C10.841,25.625 10.000,26.466 10.000,27.500 L10.000,33.959 C10.000,34.994 9.161,35.834 8.125,35.834 C7.089,35.834 6.250,34.994 6.250,33.959 L6.250,27.500 C6.250,24.399 8.773,21.875 11.875,21.875 L18.959,21.875 C19.995,21.875 20.834,22.715 20.834,23.750 C20.834,24.785 19.995,25.625 18.959,25.625 ZM9.450,43.250 C9.800,43.612 10.000,44.087 10.000,44.588 C10.000,45.075 9.800,45.563 9.450,45.912 C9.100,46.262 8.625,46.463 8.125,46.463 C7.637,46.463 7.150,46.262 6.800,45.912 C6.450,45.563 6.250,45.075 6.250,44.588 C6.250,44.087 6.450,43.612 6.800,43.262 C7.500,42.562 8.750,42.562 9.450,43.250 ZM33.687,60.675 C34.037,61.038 34.237,61.513 34.237,62.012 C34.237,62.500 34.037,62.987 33.700,63.338 C33.350,63.688 32.863,63.887 32.362,63.887 C31.875,63.887 31.387,63.688 31.037,63.338 C30.687,62.987 30.487,62.500 30.487,62.012 C30.487,61.513 30.687,61.024 31.037,60.675 C31.737,59.988 33.000,59.988 33.687,60.675 Z" />
</svg>
