<svg xmlns="http://www.w3.org/2000/svg" width="39" height="44.5" viewBox="0 0 39 44.5">
    <path id="profile"
        d="M90,1096.03H55a2,2,0,0,1-2-2v-9.5a8.01,8.01,0,0,1,8-8H84a8.01,8.01,0,0,1,8,8v9.5A2,2,0,0,1,90,1096.03Zm-33-4H88v-7.5a4.008,4.008,0,0,0-4-4H61a4.008,4.008,0,0,0-4,4v7.5Zm15.5-18.5a9.51,9.51,0,0,1-9.5-9.5v-3a9.5,9.5,0,0,1,19,0v3A9.51,9.51,0,0,1,72.5,1073.53Zm0-18a5.508,5.508,0,0,0-5.5,5.5v3a5.5,5.5,0,1,0,11,0v-3A5.508,5.508,0,0,0,72.5,1055.53Z"
        transform="translate(-53 -1051.53)"/>
</svg>
