<svg xmlns="http://www.w3.org/2000/svg" width="44" height="37.313" viewBox="0 0 44 37.313">
    <path id="messages"
        d="M93,260.354H57a4,4,0,0,1-4-4V227.021a4,4,0,0,1,4-4H93a4,4,0,0,1,4,4v29.333A4,4,0,0,1,93,260.354ZM57,227.021v29.333H93l0-29.333H57Zm18,20a2,2,0,0,1-1.414-.586l-20-20,2.828-2.828L75,242.192l18.586-18.585,2.828,2.828-20,20A2,2,0,0,1,75,247.021ZM56.414,259.768l-2.828-2.828,16.666-16.667,2.828,2.828Zm37.172,0L76.919,243.1l2.828-2.828L96.414,256.94Z"
        transform="translate(-53 -223.031)"/>
</svg>
