<svg width="24px" height="24px" viewBox="0 0 24 24" version="1.1" xmlns="http://www.w3.org/2000/svg" xmlns:xlink="http://www.w3.org/1999/xlink">
    <path d="M20.6081457,5.40454567 C20.5211061,5.36815188 20.4374087,5.34987837 20.3569833,5.34987837 C20.1761491,5.34987837 20.0256416,5.41929473 19.9050034,5.55774435 L15.8569921,9.95472668 L15.8569921,8.15005459 C15.8569921,7.28223518 15.5740605,6.54041489 15.0081973,5.92421062 C14.442299,5.30808298 13.7611101,5 12.9640677,5 L5.89278364,5 C5.09598752,5 4.41458752,5.30808298 3.84865401,5.92421062 C3.28293158,6.54041489 3,7.28223518 3,8.15005459 L3,15.8500603 C3,16.7178031 3.28293158,17.4595851 3.84868919,18.0757511 C4.41462271,18.691917 5.0960227,19 5.89281882,19 L12.9641381,19 C13.7611453,19 14.4423694,18.691917 15.0082677,18.0757511 C15.5741309,17.4595851 15.8570624,16.7178414 15.8570624,15.8500603 L15.8570624,14.0343169 L19.9050738,18.4422173 C20.025712,18.5806287 20.1762195,18.6500067 20.3570536,18.6500067 C20.4374791,18.6500067 20.5211765,18.6317715 20.6082161,18.5954543 C20.8695109,18.4714473 21,18.2564175 21,17.9501733 L21,6.0500182 C20.9998945,5.74362083 20.8694054,5.5285527 20.6081457,5.40454567 Z"></path>
</svg>
