<svg width="16px" height="16px" viewBox="0 0 16 16" version="1.1" xmlns="http://www.w3.org/2000/svg" xmlns:xlink="http://www.w3.org/1999/xlink">
    <path d="M4.65968922,10.6409996 L5.55949103,9.7450788 C5.20730378,9.25341781 5,8.6509181 5,8 C5,6.34314575 6.34314575,5 8,5 C8.65557039,5 9.2620278,5.21027769 9.7556039,5.56706474 L10.5459621,4.78011556 C9.70245732,4.25329019 8.85379055,4 8,4 C6.09680328,4 4.2190664,5.25858642 2.36721265,8 C3.12702398,9.12479567 3.89119258,9.999966 4.65968922,10.6409996 Z M6.42489323,11.7057432 C6.94797077,11.9035013 7.47300935,12 8,12 C9.90319672,12 11.7809336,10.7414136 13.6327874,8 C13.1212332,7.24271483 12.607704,6.59858116 12.0922087,6.06287217 L10.9043522,7.24560518 C10.9667828,7.48664271 11,7.73944221 11,8 C11,9.65685425 9.65685425,11 8,11 C7.7349147,11 7.47785964,10.9656184 7.23305087,10.9010713 L6.42489323,11.7057432 Z M4.91051495,13.2135896 L2.70557689,15.4090172 C2.31420948,15.7986966 1.68104598,15.7973281 1.29136663,15.4059607 C0.901687284,15.0145933 0.903055726,14.3814298 1.29442314,13.9917505 L3.23978251,12.0547819 C2.10814847,11.0740408 1.02822097,9.72244685 0,8 C2.38781467,4 5.05448133,2 8,2 C9.39267372,2 10.72301,2.44710054 11.9910088,3.34130163 L14.049824,1.29136663 C14.4411914,0.901687284 15.0743549,0.903055726 15.4640342,1.29442314 C15.8537136,1.68579054 15.8523451,2.31895404 15.4609777,2.7086334 L13.5070866,4.6540969 C14.3693344,5.54507333 15.2003056,6.66037436 16,8 C13.6121853,12 10.9455187,14 8,14 C6.93362296,14 5.90379461,13.7378632 4.91051495,13.2135896 Z"></path>
</svg>
