<svg xmlns="http://www.w3.org/2000/svg" xmlns:xlink="http://www.w3.org/1999/xlink" preserveAspectRatio="xMidYMid" width="34" height="33" viewBox="0 0 34 33">
    <path d="M32.500,32.999 L12.500,32.999 C11.672,32.999 11.000,32.327 11.000,31.499 C11.000,30.671 11.672,29.999 12.500,29.999 L31.000,29.999 L31.000,21.499 C31.000,19.569 29.430,17.999 27.500,17.999 L25.684,17.999 C24.267,19.532 22.247,20.499 20.000,20.499 C17.753,20.499 15.733,19.532 14.316,17.999 L12.500,17.999 C11.672,17.999 11.000,17.327 11.000,16.499 C11.000,15.671 11.672,14.999 12.500,14.999 L12.586,14.999 C12.369,14.286 12.250,13.531 12.250,12.749 L12.250,7.749 C12.250,3.475 15.727,-0.001 20.000,-0.001 C24.273,-0.001 27.750,3.475 27.750,7.749 L27.750,12.749 C27.750,13.531 27.631,14.286 27.414,14.999 L27.500,14.999 C31.084,14.999 34.000,17.915 34.000,21.499 L34.000,31.499 C34.000,32.327 33.328,32.999 32.500,32.999 ZM24.750,7.749 C24.750,5.130 22.619,2.999 20.000,2.999 C17.381,2.999 15.250,5.130 15.250,7.749 L15.250,12.749 C15.250,15.368 17.381,17.499 20.000,17.499 C22.619,17.499 24.750,15.368 24.750,12.749 L24.750,7.749 ZM11.500,22.499 C12.328,22.499 13.000,23.171 13.000,23.999 C13.000,24.827 12.328,25.499 11.500,25.499 L8.000,25.499 L8.000,28.999 C8.000,29.827 7.328,30.499 6.500,30.499 C5.672,30.499 5.000,29.827 5.000,28.999 L5.000,25.499 L1.500,25.499 C0.672,25.499 -0.000,24.827 -0.000,23.999 C-0.000,23.171 0.672,22.499 1.500,22.499 L5.000,22.499 L5.000,18.999 C5.000,18.171 5.672,17.499 6.500,17.499 C7.328,17.499 8.000,18.171 8.000,18.999 L8.000,22.499 L11.500,22.499 Z" class="cls-1"/>
</svg>
