<?xml version="1.0" encoding="UTF-8"?>
<svg width="16px" height="16px" viewBox="0 0 16 16" version="1.1" xmlns="http://www.w3.org/2000/svg" xmlns:xlink="http://www.w3.org/1999/xlink">
    <!-- Generator: Sketch 52.6 (67491) - http://www.bohemiancoding.com/sketch -->
    <title>login</title>
    <desc>Created with Sketch.</desc>
    <g id="login" stroke="none" stroke-width="1" fill="none" fill-rule="evenodd">
        <rect id="Rectangle" fill-rule="nonzero" x="0" y="0" width="16" height="16"></rect>
        <path d="M8.42927623,7.01506266 L7.29289322,5.87867966 C6.90236893,5.48815536 6.90236893,4.85499039 7.29289322,4.46446609 C7.68341751,4.0739418 8.31658249,4.0739418 8.70710678,4.46446609 L11.5355339,7.29289322 C11.9260582,7.68341751 11.9260582,8.31658249 11.5355339,8.70710678 L8.70710678,11.5355339 C8.31658249,11.9260582 7.68341751,11.9260582 7.29289322,11.5355339 C6.90236893,11.1450096 6.90236893,10.5118446 7.29289322,10.1213203 L8.3991509,9.01506266 L2.07128918,9.01506266 C1.51900443,9.01506266 1.07128918,8.56734741 1.07128918,8.01506266 C1.07128918,7.46277791 1.51900443,7.01506266 2.07128918,7.01506266 L8.42927623,7.01506266 Z M5,4.1400431 C5,4.69232785 4.55228475,5.1400431 4,5.1400431 C3.44771525,5.1400431 3,4.69232785 3,4.1400431 L3,1 C3,0.44771525 3.44771525,-3.00204306e-13 4,-3.00204306e-13 L15,-2.99982261e-13 C15.5522847,-2.99982261e-13 16,0.44771525 16,1 L16,15 C16,15.5522847 15.5522847,16 15,16 L4,16 C3.44771525,16 3,15.5522847 3,15 L3,12.0546584 C3,11.5023736 3.44771525,11.0546584 4,11.0546584 C4.55228475,11.0546584 5,11.5023736 5,12.0546584 L5,14 L14,14 L14,2 L5,2 L5,4.1400431 Z" id="Combined-Shape" fill="#000000" fill-rule="nonzero"></path>
    </g>
</svg>