<?xml version="1.0" encoding="UTF-8"?>
<svg width="20px" height="20px" viewBox="0 0 20 20" version="1.1" xmlns="http://www.w3.org/2000/svg" xmlns:xlink="http://www.w3.org/1999/xlink">
    <!-- Generator: Sketch 52.6 (67491) - http://www.bohemiancoding.com/sketch -->
    <title>menu-data</title>
    <desc>Created with Sketch.</desc>
    <g id="menu-data" stroke="none" stroke-width="1" fill="none" fill-rule="evenodd">
        <g id="Group" fill-rule="nonzero">
            <rect id="Rectangle" x="0" y="0" width="20" height="20"></rect>
            <path d="M18.3333333,8.33333333 L1.66666667,8.33333333 L1.66666667,12.5 L18.3333333,12.5 L18.3333333,8.33333333 Z M0.222970325,7.5 C0.081161905,7.25485553 0,6.97023929 0,6.66666667 L0,2.5 C-1.85037171e-16,1.57952542 0.746192084,0.833333333 1.66666667,0.833333333 L18.3333333,0.833333333 C19.2538079,0.833333333 20,1.57952542 20,2.5 L20,6.66666667 C20,6.97023929 19.9188381,7.25485553 19.7770297,7.5 C19.9188381,7.74514447 20,8.02976071 20,8.33333333 L20,12.5 C20,12.8035726 19.9188381,13.0881889 19.7770297,13.3333333 C19.9188381,13.5784778 20,13.863094 20,14.1666667 L20,18.3333333 C20,19.2538079 19.2538079,20 18.3333333,20 L1.66666667,20 C0.746192084,20 0,19.2538079 0,18.3333333 L0,14.1666667 C-6.10252794e-17,13.863094 0.081161905,13.5784778 0.222970325,13.3333333 C0.081161905,13.0881889 0,12.8035726 0,12.5 L0,8.33333333 C-6.10252794e-17,8.02976071 0.081161905,7.74514447 0.222970325,7.5 Z M1.66666667,6.66666667 L18.3333333,6.66666667 L18.3333333,2.5 L1.66666667,2.5 L1.66666667,6.66666667 Z M18.3333333,14.1666667 L1.66666667,14.1666667 L1.66666667,18.3333333 L18.3333333,18.3333333 L18.3333333,14.1666667 Z M6.66666667,17.0833333 C6.20642938,17.0833333 5.83333333,16.7102373 5.83333333,16.25 C5.83333333,15.7897627 6.20642938,15.4166667 6.66666667,15.4166667 L16.6666667,15.4166667 C17.126904,15.4166667 17.5,15.7897627 17.5,16.25 C17.5,16.7102373 17.126904,17.0833333 16.6666667,17.0833333 L6.66666667,17.0833333 Z M3.33333333,17.0833333 C2.87309604,17.0833333 2.5,16.7102373 2.5,16.25 C2.5,15.7897627 2.87309604,15.4166667 3.33333333,15.4166667 L4.16666667,15.4166667 C4.62690396,15.4166667 5,15.7897627 5,16.25 C5,16.7102373 4.62690396,17.0833333 4.16666667,17.0833333 L3.33333333,17.0833333 Z M6.66666667,11.25 C6.20642938,11.25 5.83333333,10.876904 5.83333333,10.4166667 C5.83333333,9.95642938 6.20642938,9.58333333 6.66666667,9.58333333 L16.6666667,9.58333333 C17.126904,9.58333333 17.5,9.95642938 17.5,10.4166667 C17.5,10.876904 17.126904,11.25 16.6666667,11.25 L6.66666667,11.25 Z M3.33333333,11.25 C2.87309604,11.25 2.5,10.876904 2.5,10.4166667 C2.5,9.95642938 2.87309604,9.58333333 3.33333333,9.58333333 L4.16666667,9.58333333 C4.62690396,9.58333333 5,9.95642938 5,10.4166667 C5,10.876904 4.62690396,11.25 4.16666667,11.25 L3.33333333,11.25 Z M6.66666667,5.41666667 C6.20642938,5.41666667 5.83333333,5.04357062 5.83333333,4.58333333 C5.83333333,4.12309604 6.20642938,3.75 6.66666667,3.75 L16.6666667,3.75 C17.126904,3.75 17.5,4.12309604 17.5,4.58333333 C17.5,5.04357062 17.126904,5.41666667 16.6666667,5.41666667 L6.66666667,5.41666667 Z M3.33333333,5.41666667 C2.87309604,5.41666667 2.5,5.04357062 2.5,4.58333333 C2.5,4.12309604 2.87309604,3.75 3.33333333,3.75 L4.16666667,3.75 C4.62690396,3.75 5,4.12309604 5,4.58333333 C5,5.04357062 4.62690396,5.41666667 4.16666667,5.41666667 L3.33333333,5.41666667 Z" id="Combined-Shape" fill="#000000"></path>
        </g>
    </g>
</svg>