<svg width="16px" height="16px" viewBox="0 0 16 16" version="1.1" xmlns="http://www.w3.org/2000/svg" xmlns:xlink="http://www.w3.org/1999/xlink">
    <path d="M12.8057899,12 L9.15086459,8.86720686 L8.5206331,9.40740528 C8.22104132,9.66419824 7.77895868,9.66419824 7.4793669,9.40740528 L7.06666667,9.05366222 L3.62927259,12 L12.8057899,12 Z M13.6,10.573427 L13.6,5.05366222 L10.3801372,7.81354463 L13.6,10.573427 Z M2.4,10.9463378 L5.83739407,8 L2.4,5.05366222 L2.4,10.9463378 Z M12.3707274,4 L3.62927259,4 L8,7.74633778 L12.3707274,4 Z M2.4,2.4 L13.6,2.4 C14.4836556,2.4 15.2,3.1163444 15.2,4 L15.2,12 C15.2,12.8836556 14.4836556,13.6 13.6,13.6 L2.4,13.6 C1.5163444,13.6 0.8,12.8836556 0.8,12 L0.8,4 C0.8,3.1163444 1.5163444,2.4 2.4,2.4 Z"
    ></path>
</svg>
