<?xml version="1.0" encoding="UTF-8"?>
<svg width="20px" height="20px" viewBox="0 0 20 20" version="1.1" xmlns="http://www.w3.org/2000/svg" xmlns:xlink="http://www.w3.org/1999/xlink">
    <!-- Generator: Sketch 52.6 (67491) - http://www.bohemiancoding.com/sketch -->
    <title>more</title>
    <desc>Created with Sketch.</desc>
    <defs>
        <path d="M9.8,4.6 C8.80588745,4.6 8,3.79411255 8,2.8 C8,1.80588745 8.80588745,1 9.8,1 C10.7941125,1 11.6,1.80588745 11.6,2.8 C11.6,3.79411255 10.7941125,4.6 9.8,4.6 Z M9.8,19 C8.80588745,19 8,18.1941125 8,17.2 C8,16.2058875 8.80588745,15.4 9.8,15.4 C10.7941125,15.4 11.6,16.2058875 11.6,17.2 C11.6,18.1941125 10.7941125,19 9.8,19 Z M9.8,11.8 C8.80588745,11.8 8,10.9941125 8,10 C8,9.00588745 8.80588745,8.2 9.8,8.2 C10.7941125,8.2 11.6,9.00588745 11.6,10 C11.6,10.9941125 10.7941125,11.8 9.8,11.8 Z" id="path-1"></path>
    </defs>
    <g id="more" stroke="none" stroke-width="1" fill="none" fill-rule="evenodd">
        <rect id="Rectangle" fill-rule="nonzero" x="0" y="0" width="20" height="20"></rect>
        <mask id="mask-2" fill="white">
            <use xlink:href="#path-1"></use>
        </mask>
        <use id="Combined-Shape" fill="#000000" fill-rule="nonzero" xlink:href="#path-1"></use>
        <g id="colors" mask="url(#mask-2)" fill-rule="nonzero">
            <g id="blue" fill="#1563D7">
                <rect x="0" y="0" width="20" height="20"></rect>
            </g>
            <g id="orange" fill="#FFA512">
                <rect x="0" y="0" width="20" height="20"></rect>
            </g>
            <g id="red" fill="#F92842">
                <rect x="0" y="0" width="20" height="20"></rect>
            </g>
            <g id="white" fill="#FFFFFF">
                <rect x="0" y="0" width="20" height="20"></rect>
            </g>
            <g id="green" fill="#0BC899">
                <rect x="0" y="0" width="20" height="20"></rect>
            </g>
            <g id="dark-gray" fill="#8D9092">
                <rect x="0" y="0" width="20" height="20"></rect>
            </g>
            <g id="gray" fill="#000000">
                <rect x="0" y="0" width="20" height="20"></rect>
            </g>
        </g>
    </g>
</svg>