<?xml version="1.0" encoding="UTF-8"?>
<svg width="20px" height="20px" viewBox="0 0 20 20" version="1.1" xmlns="http://www.w3.org/2000/svg" xmlns:xlink="http://www.w3.org/1999/xlink">
    <!-- Generator: Sketch 52.6 (67491) - http://www.bohemiancoding.com/sketch -->
    <title>move</title>
    <desc>Created with Sketch.</desc>
    <g id="move" stroke="none" stroke-width="1" fill="none" fill-rule="evenodd">
        <g fill-rule="nonzero">
            <rect id="Rectangle" x="0" y="0" width="20" height="20"></rect>
            <path d="M4,4 L16,4 C16.5522847,4 17,4.44771525 17,5 C17,5.55228475 16.5522847,6 16,6 L4,6 C3.44771525,6 3,5.55228475 3,5 C3,4.44771525 3.44771525,4 4,4 Z M4,9 L16,9 C16.5522847,9 17,9.44771525 17,10 C17,10.5522847 16.5522847,11 16,11 L4,11 C3.44771525,11 3,10.5522847 3,10 C3,9.44771525 3.44771525,9 4,9 Z M4,14 L16,14 C16.5522847,14 17,14.4477153 17,15 C17,15.5522847 16.5522847,16 16,16 L4,16 C3.44771525,16 3,15.5522847 3,15 C3,14.4477153 3.44771525,14 4,14 Z" id="Combined-Shape" fill="#000000"></path>
        </g>
    </g>
</svg>