<?xml version="1.0" encoding="UTF-8"?>
<svg width="16px" height="16px" viewBox="0 0 16 16" version="1.1" xmlns="http://www.w3.org/2000/svg" xmlns:xlink="http://www.w3.org/1999/xlink">
    <!-- Generator: Sketch 52.6 (67491) - http://www.bohemiancoding.com/sketch -->
    <title>replase</title>
    <desc>Created with Sketch.</desc>
    <defs>
        <path d="M13.2351983,5.42141268 L0.711902113,5.42141268 C0.201918133,5.42141268 -0.15,5.06949455 -0.15,4.55951057 C-0.15,4.04952659 0.201918133,3.69760845 0.711902113,3.69760845 L13.2351983,3.69760845 L11.8538895,2.31629961 C11.51055,1.97296012 11.51055,1.45084411 11.8538895,1.10750462 C12.197229,0.764165128 12.719345,0.764165128 13.0626845,1.10750462 L15.9102929,3.95511307 C16.0508724,4.09569258 16.0966073,4.15667244 16.0807714,4.20766768 C16.1717198,4.38956442 16.1717198,4.64327571 16.0526734,4.95033743 C16.0374578,4.96555296 16.0295393,4.97822267 16.0095812,5.01813877 C15.9761466,5.08500799 15.9544026,5.11979842 15.9102929,5.16390806 L13.0626845,8.01151652 C12.8859643,8.18823669 12.7041993,8.26902113 12.458287,8.26902113 C12.2123747,8.26902113 12.0306097,8.18823669 11.8538895,8.01151652 C11.51055,7.66817703 11.51055,7.14606101 11.8538895,6.80272152 L13.2351983,5.42141268 Z M15.2880979,10.6976085 C15.7980819,10.6976085 16.15,11.0495266 16.15,11.5595106 C16.15,12.0694945 15.7980819,12.4214127 15.2880979,12.4214127 L2.76480167,12.4214127 L4.14611051,13.8027215 C4.48945,14.146061 4.48945,14.668177 4.14611051,15.0115165 C3.96939034,15.1882367 3.78762534,15.2690211 3.54171301,15.2690211 C3.29580069,15.2690211 3.11403569,15.1882367 2.93731552,15.0115165 L0.089707064,12.1639081 C0.0455974221,12.1197984 0.0238534,12.085008 -0.00958120879,12.0181388 C-0.0295392585,11.9782227 -0.0374578245,11.965553 -0.0889098362,11.8917056 C-0.171719791,11.6432757 -0.171719791,11.3895644 -0.0966073415,11.2747497 C-0.0966073415,11.1566724 -0.050872446,11.0956926 0.089707064,10.9551131 L2.93731552,8.10750462 C3.28065501,7.76416513 3.80277102,7.76416513 4.14611051,8.10750462 C4.48945,8.45084411 4.48945,8.97296012 4.14611051,9.31629961 L2.76480167,10.6976085 L15.2880979,10.6976085 Z" id="path-1"></path>
    </defs>
    <g id="replase" stroke="none" stroke-width="1" fill="none" fill-rule="evenodd">
        <mask id="mask-2" fill="white">
            <use xlink:href="#path-1"></use>
        </mask>
        <use id="Combined-Shape" fill="#000000" fill-rule="nonzero" xlink:href="#path-1"></use>
        <g id="colors" mask="url(#mask-2)" fill-rule="nonzero">
            <g id="blue" fill="#1563D7">
                <rect x="0" y="0" width="16" height="16"></rect>
            </g>
            <g id="orange" fill="#FFA512">
                <rect x="0" y="0" width="16" height="16"></rect>
            </g>
            <g id="red" fill="#F92842">
                <rect x="0" y="0" width="16" height="16"></rect>
            </g>
            <g id="white" fill="#FFFFFF">
                <rect x="0" y="0" width="16" height="16"></rect>
            </g>
            <g id="green" fill="#0BC899">
                <rect x="0" y="0" width="16" height="16"></rect>
            </g>
            <g id="dark-gray" fill="#8D9092">
                <rect x="0" y="0" width="16" height="16"></rect>
            </g>
            <g id="gray" fill="#000000">
                <rect x="0" y="0" width="16" height="16"></rect>
            </g>
        </g>
    </g>
</svg>