<svg viewBox="0 0 16 16" version="1.1" xmlns="http://www.w3.org/2000/svg" xmlns:xlink="http://www.w3.org/1999/xlink">
    <path d="M8,4 C6.09680328,4 4.2190664,5.25858642 2.36721265,8 C4.2190664,10.7414136 6.09680328,12 8,12 C9.90319672,12 11.7809336,10.7414136 13.6327874,8 C11.7809336,5.25858642 9.90319672,4 8,4 Z M8,14 C5.05448133,14 2.38781467,12 0,8 C2.38781467,4 5.05448133,2 8,2 C10.9455187,2 13.6121853,4 16,8 C13.6121853,12 10.9455187,14 8,14 Z M8,11 C6.34314575,11 5,9.65685425 5,8 C5,6.34314575 6.34314575,5 8,5 C9.65685425,5 11,6.34314575 11,8 C11,9.65685425 9.65685425,11 8,11 Z"></path>
</svg>
