<?xml version="1.0" encoding="UTF-8"?>
<svg width="24px" height="24px" viewBox="0 0 24 24" version="1.1" xmlns="http://www.w3.org/2000/svg" xmlns:xlink="http://www.w3.org/1999/xlink">
    <!-- Generator: Sketch 52.6 (67491) - http://www.bohemiancoding.com/sketch -->
    <title>team</title>
    <desc>Created with Sketch.</desc>
    <defs>
        <rect id="path-1" x="0" y="0" width="24" height="24" rx="2"></rect>
        <filter x="-54.2%" y="-45.8%" width="208.3%" height="208.3%" filterUnits="objectBoundingBox" id="filter-2">
            <feOffset dx="0" dy="2" in="SourceAlpha" result="shadowOffsetOuter1"></feOffset>
            <feGaussianBlur stdDeviation="4" in="shadowOffsetOuter1" result="shadowBlurOuter1"></feGaussianBlur>
            <feComposite in="shadowBlurOuter1" in2="SourceAlpha" operator="out" result="shadowBlurOuter1"></feComposite>
            <feColorMatrix values="0 0 0 0 0   0 0 0 0 0   0 0 0 0 0  0 0 0 0.1 0" type="matrix" in="shadowBlurOuter1"></feColorMatrix>
        </filter>
        <path d="M9,11 L15,11 L15,7 C15,6.44771525 15.4477153,6 16,6 C16.5522847,6 17,6.44771525 17,7 L17,17 C17,17.5522847 16.5522847,18 16,18 C15.4477153,18 15,17.5522847 15,17 L15,13 L9,13 L9,17 C9,17.5522847 8.55228475,18 8,18 C7.44771525,18 7,17.5522847 7,17 L7,7 C7,6.44771525 7.44771525,6 8,6 C8.55228475,6 9,6.44771525 9,7 L9,11 Z" id="path-3"></path>
    </defs>
    <g id="team" stroke="none" stroke-width="1" fill="none" fill-rule="evenodd">
        <g id="Rectangle" fill-rule="nonzero">
            <use fill="black" fill-opacity="1" filter="url(#filter-2)" xlink:href="#path-1"></use>
            <rect stroke="#E1E1E1" stroke-width="1" stroke-linejoin="square" fill="#FFFFFF" fill-rule="evenodd" x="0.5" y="0.5" width="23" height="23" rx="2"></rect>
        </g>
        <mask id="mask-4" fill="white">
            <use xlink:href="#path-3"></use>
        </mask>
        <use id="Combined-Shape" fill="#C1C6C9" fill-rule="nonzero" xlink:href="#path-3"></use>
        <g id="colors" mask="url(#mask-4)" fill-rule="nonzero">
            <g id="blue" fill="#1563D7">
                <rect x="0" y="0" width="24" height="24"></rect>
            </g>
            <g id="orange" fill="#FFA512">
                <rect x="0" y="0" width="24" height="24"></rect>
            </g>
            <g id="red" fill="#F92842">
                <rect x="0" y="0" width="24" height="24"></rect>
            </g>
            <g id="white" fill="#FFFFFF">
                <rect x="0" y="0" width="24" height="24"></rect>
            </g>
            <g id="green" fill="#0BC899">
                <rect x="0" y="0" width="24" height="24"></rect>
            </g>
            <g id="dark-gray" fill="#8D9092">
                <rect x="0" y="0" width="24" height="24"></rect>
            </g>
            <g id="gray" fill="#C1C6C9">
                <rect x="0" y="0" width="24" height="24"></rect>
            </g>
        </g>
    </g>
</svg>