<?xml version="1.0" encoding="UTF-8"?>
<svg width="20px" height="20px" viewBox="0 0 20 20" version="1.1" xmlns="http://www.w3.org/2000/svg" xmlns:xlink="http://www.w3.org/1999/xlink">
    <!-- Generator: Sketch 52.6 (67491) - http://www.bohemiancoding.com/sketch -->
    <title>undo</title>
    <desc>Created with Sketch.</desc>
    <defs>
        <path d="M5.97818343,9.20155222 C6.3683314,9.58102461 6.3683314,10.1962709 5.97818343,10.5757433 C5.58803545,10.9552157 4.95548061,10.9552157 4.56533264,10.5757433 L-0.0337846485,6.10247124 L4.56533264,1.62919917 C4.95548061,1.24972679 5.58803545,1.24972679 5.97818343,1.62919917 C6.3683314,2.00867156 6.3683314,2.62391787 5.97818343,3.00339026 L2.79191693,6.10247124 L5.97818343,9.20155222 Z M2.10324137,7.12448248 C1.52292089,7.12448248 1.05247819,6.66691246 1.05247819,6.10247124 C1.05247819,5.53803002 1.52292089,5.08046 2.10324137,5.08046 L12.6108731,5.08046 C16.6731165,5.08046 19.9662154,7.26143889 19.9662154,11.2125274 C19.9662154,15.163616 16.6731165,17.3445949 12.6108731,17.3445949 L2.10324137,17.3445949 C1.52292089,17.3445949 1.05247819,16.8870249 1.05247819,16.3225836 C1.05247819,15.7581424 1.52292089,15.3005724 2.10324137,15.3005724 L12.6108731,15.3005724 C15.5124755,15.3005724 17.864689,14.0347336 17.864689,11.2125274 C17.864689,8.39032133 15.5124755,7.12448248 12.6108731,7.12448248 L2.10324137,7.12448248 Z" id="path-1"></path>
    </defs>
    <g id="undo" stroke="none" stroke-width="1" fill="none" fill-rule="evenodd">
        <rect id="Rectangle" fill-rule="nonzero" transform="translate(10.000000, 10.000000) rotate(-270.000000) translate(-10.000000, -10.000000) " x="-1.77635684e-15" y="0" width="20" height="20"></rect>
        <mask id="mask-2" fill="white">
            <use xlink:href="#path-1"></use>
        </mask>
        <use id="Combined-Shape" fill="#000000" fill-rule="nonzero" xlink:href="#path-1"></use>
        <g id="colors" mask="url(#mask-2)" fill-rule="nonzero">
            <g id="blue" fill="#1563D7">
                <rect x="0" y="0" width="20" height="20"></rect>
            </g>
            <g id="orange" fill="#FFA512">
                <rect x="0" y="0" width="20" height="20"></rect>
            </g>
            <g id="red" fill="#F92842">
                <rect x="0" y="0" width="20" height="20"></rect>
            </g>
            <g id="white" fill="#FFFFFF">
                <rect x="0" y="0" width="20" height="20"></rect>
            </g>
            <g id="green" fill="#0BC899">
                <rect x="0" y="0" width="20" height="20"></rect>
            </g>
            <g id="dark-gray" fill="#8D9092">
                <rect x="0" y="0" width="20" height="20"></rect>
            </g>
            <g id="gray" fill="#000000">
                <rect x="0" y="0" width="20" height="20"></rect>
            </g>
        </g>
    </g>
</svg>