<?xml version="1.0" encoding="UTF-8"?>
<svg width="20px" height="20px" viewBox="0 0 20 20" version="1.1" xmlns="http://www.w3.org/2000/svg" xmlns:xlink="http://www.w3.org/1999/xlink">
    <!-- Generator: Sketch 52.6 (67491) - http://www.bohemiancoding.com/sketch -->
    <title>update</title>
    <desc>Created with Sketch.</desc>
    <defs>
        <path d="M15.9308614,8.16432466 C15.0422541,5.6962 12.6865663,4 10,4 C7.19284757,4 4.74694317,5.85188458 3.95845326,8.50125071 C3.80091423,9.03058983 3.24408948,9.33199335 2.71475036,9.17445433 C2.18541125,9.0169153 1.88400772,8.46009055 2.04154674,7.93075143 C3.08076224,4.43893462 6.30202181,2 10,2 C13.3266603,2 16.2675311,3.97373288 17.5811329,6.91215027 L17.803463,3.88841188 C17.8433734,3.34562104 18.3146794,2.95014834 18.8561544,3.00509888 C19.3976294,3.06004941 19.8042278,3.54461454 19.7643174,4.08740537 L19.2938478,10.4858975 L12.910867,9.83813309 C12.369392,9.78318255 11.9627936,9.29861743 12.002704,8.75582659 C12.0426144,8.21303576 12.5139204,7.81756306 13.0553954,7.87251359 L15.9308614,8.16432466 Z M3.83615992,13.3215728 C4.72476728,15.7896975 7.08045504,17.4858975 9.76702137,17.4858975 C12.5741738,17.4858975 15.0200782,15.6340129 15.8085681,12.9846468 C15.9661071,12.4553076 16.5229319,12.1539041 17.052271,12.3114431 C17.5816101,12.4689822 17.8830136,13.0258069 17.7254746,13.555146 C16.6862591,17.0469628 13.4649996,19.4858975 9.76702137,19.4858975 C6.44036107,19.4858975 3.49949023,17.5121646 2.18588845,14.5737472 L1.96355841,17.5974856 C1.92364798,18.1402764 1.45234196,18.5357491 0.910866966,18.4807986 C0.369391968,18.4258481 -0.0372064487,17.9412829 0.00270398408,17.3984921 L0.473173586,11 L6.8561544,11.6477644 C7.3976294,11.7027149 7.80422781,12.18728 7.76431738,12.7300709 C7.72440695,13.2728617 7.25310094,13.6683344 6.71162594,13.6133839 L3.83615992,13.3215728 Z" id="path-1"></path>
    </defs>
    <g id="update" stroke="none" stroke-width="1" fill="none" fill-rule="evenodd">
        <rect id="Rectangle" fill-rule="nonzero" transform="translate(10.000000, 10.000000) rotate(-270.000000) translate(-10.000000, -10.000000) " x="-1.77635684e-15" y="0" width="20" height="20"></rect>
        <mask id="mask-2" fill="white">
            <use xlink:href="#path-1"></use>
        </mask>
        <use id="Combined-Shape" fill="#000000" fill-rule="nonzero" transform="translate(9.883511, 10.742949) rotate(-9.000000) translate(-9.883511, -10.742949) " xlink:href="#path-1"></use>
        <g id="colors" mask="url(#mask-2)" fill-rule="nonzero">
            <g id="blue" fill="#1563D7">
                <rect x="0" y="0" width="20" height="20"></rect>
            </g>
            <g id="orange" fill="#FFA512">
                <rect x="0" y="0" width="20" height="20"></rect>
            </g>
            <g id="red" fill="#F92842">
                <rect x="0" y="0" width="20" height="20"></rect>
            </g>
            <g id="white" fill="#FFFFFF">
                <rect x="0" y="0" width="20" height="20"></rect>
            </g>
            <g id="green" fill="#0BC899">
                <rect x="0" y="0" width="20" height="20"></rect>
            </g>
            <g id="dark-gray" fill="#8D9092">
                <rect x="0" y="0" width="20" height="20"></rect>
            </g>
            <g id="gray" fill="#000000">
                <rect x="0" y="0" width="20" height="20"></rect>
            </g>
        </g>
    </g>
</svg>